<?xml version="1.0" encoding="utf-8"?>
<!-- Generator: Adobe Illustrator 26.2.1, SVG Export Plug-In . SVG Version: 6.00 Build 0)  -->
<svg version="1.1" id="Calque_1" xmlns="http://www.w3.org/2000/svg" xmlns:xlink="http://www.w3.org/1999/xlink" x="0px" y="0px"
	 viewBox="0 0 120 120" style="enable-background:new 0 0 120 120;" xml:space="preserve">
<style type="text/css">
	.st0{fill:none;}
	.st1{fill:none;stroke:#E53429;stroke-width:1.5;stroke-linecap:round;stroke-linejoin:round;}
	.st2{fill:none;stroke:#2753A0;stroke-width:1.5;stroke-linecap:round;stroke-linejoin:round;}
	.st3{fill:none;stroke:#00DDFF;stroke-width:1.5;stroke-linecap:round;stroke-linejoin:round;}
</style>
<g id="Calque_2_00000004522903214243001580000003034608700815839150_">
	<g id="Calque_1-2">
		<g id="adresse">
			<path class="st0" d="M0,0h120v120H0V0z"/>
			<path class="st0" d="M0,0"/>
			<path class="st0" d="M0,0"/>
			<path class="st1" d="M52.3,65.6l1.3,10l-3.4,0.7"/>
			<path class="st1" d="M48.1,69.4l-0.6,7.2l-6.9-0.5L42,65.6"/>
			<path class="st2" d="M52.7,63.2H42.1l0-12.7"/>
			<path class="st2" d="M0,0"/>
			<path class="st2" d="M0,0"/>
			<path class="st2" d="M0,0"/>
			<path class="st1" d="M62.2,41.1h19.3"/>
			<path class="st2" d="M62.2,44.4h9.7"/>
			<path class="st1" d="M79.2,38.9l2.2,2.2l-2.2,2.2"/>
			<path class="st1" d="M0,0"/>
			<path class="st3" d="M41.2,42.9l6.5,1.6l8.2-2.7"/>
			<path class="st1" d="M60.1,47.1l7.9,7.9"/>
			<path class="st1" d="M67.9,27L56.3,38.6"/>
			<path class="st2" d="M52.8,50.6l0,12.5"/>
		</g>
	</g>
</g>
</svg>
