<?xml version="1.0" encoding="utf-8"?>
<!-- Generator: Adobe Illustrator 26.2.1, SVG Export Plug-In . SVG Version: 6.00 Build 0)  -->
<svg version="1.1" id="Calque_1" xmlns="http://www.w3.org/2000/svg" xmlns:xlink="http://www.w3.org/1999/xlink" x="0px" y="0px"
	 viewBox="0 0 138.4 19.1" style="enable-background:new 0 0 138.4 19.1;" xml:space="preserve">
<style type="text/css">
	.st0{fill:none;stroke:#00DDFF;stroke-width:2;stroke-linecap:round;stroke-linejoin:round;}
	.st1{fill:none;stroke:#2753A0;stroke-width:2;stroke-linecap:round;stroke-linejoin:round;}
	.st2{fill:none;stroke:#E53529;stroke-width:2;stroke-linecap:round;stroke-linejoin:round;}
</style>
<g id="Calque_2_00000057850527719354769880000013159155802997154690_">
	<g id="Calque_1-2">
		<g id="aquatique">
			<path class="st0" d="M18.1,1c0,9.4-7.6,17-16.9,17.1c0,0-0.1,0-0.1,0"/>
			<path class="st1" d="M18.1,1c0,9.4,7.6,17,16.9,17.1c0,0,0,0,0.1,0"/>
			<path class="st2" d="M52.2,1c0,9.4-7.6,17-16.9,17.1c0,0-0.1,0-0.1,0"/>
			<path class="st1" d="M52.2,1c0,9.4,7.6,17,16.9,17.1c0,0,0.1,0,0.1,0"/>
			<path class="st0" d="M86.3,1c0,9.4-7.6,17-16.9,17.1c0,0,0,0-0.1,0"/>
			<path class="st1" d="M86.3,1c0,9.4,7.6,17,16.9,17.1c0,0,0,0,0.1,0"/>
			<path class="st2" d="M120.4,1c0,9.4-7.6,17-16.9,17.1c-0.1,0-0.1,0-0.2,0"/>
			<path class="st1" d="M120.4,1c0,9.4,7.6,17,16.9,17.1c0,0,0,0,0.1,0"/>
		</g>
	</g>
</g>
</svg>
