<svg xmlns="http://www.w3.org/2000/svg" viewBox="0 0 220 220"><defs><style>.cls-2,.cls-3,.cls-4,.cls-6{fill:none}.cls-2{stroke:#e53429}.cls-2,.cls-3,.cls-4,.cls-6{stroke-linecap:round;stroke-linejoin:round;stroke-width:2px}.cls-3{stroke:#0df}.cls-4,.cls-6{stroke:#2753a0}</style></defs><path class="cls-2" d="M103.9 110.2l8.5-8.7"/><path class="cls-3" d="M118.8 116.7l7.3-13a8.2 8.2 0 00.8-5.4"/><path class="cls-2" d="M130.5 98.6a7.5 7.5 0 116.2-8.6"/><path class="cls-4" d="M136.7 90a7.5 7.5 0 01-6.2 8.6"/><path stroke-linecap="round" stroke-linejoin="round" stroke-width="2px" stroke="#e53429" fill="none" d="M89.5 103.7l18-4.5 8.6 4"/><path class="cls-6" d="M109 100l4.1-6M89.5 103.7a1.6 1.6 0 01-2-.8 1.6 1.6 0 01.8-2.3l15-7a11 11 0 019.8.3l6 3.3"/><path class="cls-2" d="M133.5 122.7c2.8.4 5.3 2.3 4.6 5.8-1 5.3-4.5 21-4.5 21a3 3 0 01-2.6 2.8 2.5 2.5 0 01-1.7-.3 3.2 3.2 0 01-1.5-3.1"/><path class="cls-4" d="M127.8 148.9l3-17.5c0-.5-.2-.9-1.5-.9h.8l3.7-7.8h-.3l-11.4-2.1"/><path class="cls-6" d="M81.8 131.8a21.6 21.6 0 1143.2 0"/><path class="cls-2" d="M103.4 140.4a8.6 8.6 0 110-17.1"/><path class="cls-6" d="M103.4 114.6A17.2 17.2 0 1186 131.8"/><path class="cls-3" d="M86.1 131.8a17.2 17.2 0 0117.3-17.2M125 131.8a21.6 21.6 0 01-21.6 21.6"/><path class="cls-6" d="M103.4 153.4a21.6 21.6 0 01-21.6-21.6"/></svg>
