<svg xmlns="http://www.w3.org/2000/svg" viewBox="0 0 220 220"><defs><style>.cls-1{fill:#fff;}.cls-2,.cls-3,.cls-4{fill:none;stroke-linecap:round;stroke-width:2px;}.cls-2{stroke:#e53429;}.cls-2,.cls-3{stroke-linejoin:round;}.cls-3{stroke:#0df;}.cls-4{stroke:#2753a0;stroke-miterlimit:10;}</style></defs><g id="Calque_2" data-name="Calque 2"><g id="Calque_1-2" data-name="Calque 1"><g id="collectif"><path class="cls-2" d="M139.88,131.53a36.81,36.81,0,1,0-64.23-8.23"/><path class="cls-3" d="M75.65,123.3a36.84,36.84,0,0,0,64.23,8.23"/><path class="cls-4" d="M145.92,101.91a52.41,52.41,0,0,0-41.47-15.58c-24.06,1.77-31.18,21.11-31.18,21.11"/><path class="cls-2" d="M104.5,73.58s-2.41,11.17,0,32.68,12,40,12,40"/><path class="cls-3" d="M124.68,76.22s-11.16,1.5-11.15,12.28c0,8.09,6.11,15.19,14.4,23.67s13.55,13.42,11.94,19.36"/><path class="cls-4" d="M87.46,80.88A9,9,0,0,1,95,90.08c0,5.53-2.36,13.27-5.91,23.31s-6.47,19-.67,26.43"/></g></g></g></svg>
