<svg xmlns="http://www.w3.org/2000/svg" viewBox="0 0 220 220"><defs><style>.cls-1,.cls-2,.cls-3,.cls-4{fill:none;}.cls-2{stroke:#0df;}.cls-2,.cls-3,.cls-4{stroke-linecap:round;stroke-linejoin:round;stroke-width:2px;}.cls-3{stroke:#e53429;}.cls-4{stroke:#2753a0;}</style></defs><g id="Calque_2" data-name="Calque 2"><g id="Calque_1-2" data-name="Calque 1"><g id="competition"><line class="cls-2" x1="84.38" y1="72.71" x2="109.95" y2="71.07"/><line class="cls-3" x1="109.95" y1="71.07" x2="135.69" y2="72.71"/><path class="cls-4" d="M136.13,76.05c16.5-9.61,25.68,7.23-4.55,24.84"/><path class="cls-4" d="M83.87,76.05c-16.5-9.61-25.68,7.23,4.55,24.84"/><path class="cls-3" d="M107.22,128.1a2.34,2.34,0,0,1,0-4.67"/><path class="cls-3" d="M112.78,128.1a2.34,2.34,0,0,0,0-4.67"/><polyline class="cls-4" points="119.47 149.68 119.47 136.34 111.56 132.06 111.56 119.87"/><line class="cls-4" x1="108.34" y1="119.87" x2="108.34" y2="132.06"/><polyline class="cls-2" points="108.34 132.06 100.42 136.34 100.42 149.68"/><path class="cls-3" d="M135.69,68.25V81.16c0,30.72-25.23,38.71-25.23,38.71"/><line class="cls-3" x1="110.46" y1="66.25" x2="135.69" y2="68.25"/><path class="cls-2" d="M109.61,66.25l-25.23,2V81.16c0,30.72,25.23,38.71,25.23,38.71"/><polyline class="cls-4" points="125.97 149.68 125.97 153.75 93.92 153.75"/><polyline class="cls-3" points="93.92 153.75 93.92 149.68 125.97 149.68"/></g></g></g></svg>
