<?xml version="1.0" encoding="utf-8"?>
<!-- Generator: Adobe Illustrator 26.2.1, SVG Export Plug-In . SVG Version: 6.00 Build 0)  -->
<svg version="1.1" id="Calque_1" xmlns="http://www.w3.org/2000/svg" xmlns:xlink="http://www.w3.org/1999/xlink" x="0px" y="0px"
	 viewBox="0 0 98.5 106.2" style="enable-background:new 0 0 98.5 106.2;" xml:space="preserve">
<style type="text/css">
	.st0{fill:none;stroke:#2753A0;stroke-width:2;stroke-linecap:round;stroke-linejoin:round;}
	.st1{fill:none;stroke:#00DDFF;stroke-width:2;stroke-linecap:round;stroke-linejoin:round;}
	.st2{fill:none;stroke:#E53429;stroke-width:2;stroke-linecap:round;stroke-linejoin:round;}
</style>
<g id="Calque_2_00000150069591844984726490000007269695503221255344_">
	<g id="Calque_1-2">
		<g id="efforts">
			<path class="st0" d="M86.2,49.9l7.8-11c0.5-0.7,0.8-1.6,0.8-2.5"/>
			<line class="st0" x1="74.9" y1="68" x2="97.5" y2="68"/>
			<line class="st0" x1="61.6" y1="42.5" x2="71.9" y2="86"/>
			<line class="st1" x1="34.8" y1="1" x2="51" y2="105.2"/>
			<line class="st0" x1="1" y1="68" x2="23.7" y2="68"/>
			<line class="st2" x1="51" y1="105.2" x2="61.6" y2="42.5"/>
			<line class="st2" x1="23.7" y1="68" x2="34.8" y2="1"/>
			<line class="st2" x1="71.9" y1="86" x2="74.9" y2="68"/>
			<path class="st0" d="M90.5,32.1c-2.4,0-4.3,1.9-4.3,4.3c0,0,0,0,0,0"/>
			<path class="st2" d="M94.8,36.3c0-2.4-1.9-4.3-4.3-4.3"/>
			<path class="st2" d="M81.9,32.1c-2.4,0-4.3,1.9-4.3,4.3c0,0,0,0,0,0c0,0.9,0.3,1.8,0.8,2.5l0,0l7.8,11"/>
			<path class="st1" d="M86.2,36.3c0-2.4-1.9-4.3-4.3-4.3"/>
		</g>
	</g>
</g>
</svg>
