<?xml version="1.0" encoding="utf-8"?>
<!-- Generator: Adobe Illustrator 26.2.1, SVG Export Plug-In . SVG Version: 6.00 Build 0)  -->
<svg version="1.1" id="Calque_1" xmlns="http://www.w3.org/2000/svg" xmlns:xlink="http://www.w3.org/1999/xlink" x="0px" y="0px"
	 viewBox="0 0 58 64.8" style="enable-background:new 0 0 58 64.8;" xml:space="preserve">
<style type="text/css">
	.st0{fill:none;}
	.st1{fill:none;stroke:#00DDFF;stroke-width:1.5;stroke-linecap:round;stroke-linejoin:round;}
	.st2{fill:none;stroke:#E53429;stroke-width:1.5;stroke-linecap:round;stroke-linejoin:round;}
	.st3{fill:none;stroke:#2753A0;stroke-width:1.5;stroke-linecap:round;stroke-linejoin:round;}
</style>
<g id="Calque_2_00000096051655890329098920000008835783657371298980_">
	<g id="Calque_1-2">
		<g id="endurance">
			<rect x="-31.5" y="-27.3" class="st0" width="120" height="120"/>
			<path class="st1" d="M41.7,46.9l8.8,14.4c0.2,0.4,0.3,0.8,0.2,1.2l0,0c-0.2,0.8-1,1.3-1.8,1.1c-0.3-0.1-0.5-0.2-0.7-0.4
				L37.4,50.2"/>
			<path class="st1" d="M25.8,48.5c-0.6,2.2-2.1,2.8-3.2,2.5L2.1,44.1c-0.4-0.1-0.7-0.4-0.9-0.8l0,0c-0.4-0.7-0.1-1.6,0.7-2
				c0.2-0.1,0.5-0.2,0.8-0.1l14.1,2.5"/>
			<path class="st2" d="M31.9,11.7c-6-1-9.3,1.8-10.9,4.9"/>
			<path class="st1" d="M24.8,19l-5,9.5c-0.4,0.9-1.3,1.5-2.3,1.4l0,0c-1-0.4-1.6-1.5-1.2-2.5c0-0.1,0-0.1,0.1-0.2l3.7-8.4"/>
			<path class="st1" d="M45.5,18.1l8.2-0.9c0.8-0.3,1.6-0.1,2.1,0.6l0,0c0.4,0.8,0,1.8-0.8,2.2c0,0-0.1,0-0.1,0.1l-11.8,2.8"/>
			<line class="st3" x1="23.4" y1="31.9" x2="28.3" y2="16.5"/>
			<line class="st3" x1="34.1" y1="34.1" x2="23.4" y2="31.9"/>
			<polyline class="st2" points="23.4,31.9 19,44.5 26.9,45.8 30.1,36.8 			"/>
			<polyline class="st2" points="29,40.2 34.8,48.5 41,44.4 35.6,36.3 			"/>
			<path class="st2" d="M44.1,4.9c-0.9-2.4-3.6-3.7-6-2.8c-2.4,0.9-3.7,3.6-2.8,6c0.9,2.4,3.5,3.7,5.9,2.8"/>
			<path class="st3" d="M41.3,10.9C43.7,10,45,7.4,44.1,5c0,0,0-0.1,0-0.1"/>
			<path class="st3" d="M43.2,18.3v4.4c-4.4,0.7-8.4-1-10.3-4.4"/>
			<line class="st3" x1="34.1" y1="34.1" x2="37.4" y2="23"/>
			<path class="st3" d="M43.2,18.1c-4,0.2-2.2-5-7.6-5"/>
			<line class="st2" x1="21.1" y1="16.6" x2="24.8" y2="19"/>
		</g>
	</g>
</g>
</svg>
