<?xml version="1.0" encoding="utf-8"?>
<!-- Generator: Adobe Illustrator 26.2.1, SVG Export Plug-In . SVG Version: 6.00 Build 0)  -->
<svg version="1.1" id="Calque_1" xmlns="http://www.w3.org/2000/svg" xmlns:xlink="http://www.w3.org/1999/xlink" x="0px" y="0px"
	 viewBox="0 0 69.8 81.8" style="enable-background:new 0 0 69.8 81.8;" xml:space="preserve">
<style type="text/css">
	.st0{fill:none;}
	.st1{fill:none;stroke:#2753A0;stroke-width:1.5;stroke-linecap:round;stroke-linejoin:round;}
	.st2{fill:none;stroke:#E53429;stroke-width:1.5;stroke-linecap:round;stroke-linejoin:round;}
	.st3{fill:none;stroke:#00DDFF;stroke-width:1.5;stroke-linecap:round;stroke-linejoin:round;}
</style>
<g id="Calque_2_00000136411230171368066880000010151096464420658323_">
	<g id="Calque_1-2">
		<g id="equilibre">
			<rect x="-22.1" y="-17.5" class="st0" width="120" height="120"/>
			<polyline class="st1" points="21.8,26.7 28.9,25.5 28.9,40.2 			"/>
			<path class="st2" d="M34.6,15c2.6-0.1,4.6-2.3,4.5-4.8c-0.1-2.6-2.3-4.6-4.8-4.5c-2.6,0.1-4.6,2.3-4.5,4.8"/>
			<path class="st1" d="M29.7,10.5c0.1,2.6,2.3,4.6,4.9,4.5"/>
			<path class="st3" d="M6.2,24.7c0,0,4.3-0.8,11.2-2"/>
			<path class="st3" d="M6.2,24.7c-1.1,0.2-1.8,1.2-1.7,2.3c0,0.1,0,0.2,0.1,0.3l0,0c0.5,0.9,1.5,1.4,2.5,1.2l9.9-1.1"/>
			<polyline class="st1" points="40.6,36.9 40.5,24.2 49.7,22 			"/>
			<path class="st3" d="M63.1,14.8c0,0-4.7,0.7-11.6,2"/>
			<path class="st3" d="M63.1,14.8c1.1-0.2,2.1,0.5,2.3,1.6c0,0.1,0,0.2,0,0.2l0,0c-0.1,1-1,1.8-2,1.9l-10.2,2.8"/>
			<polyline class="st2" points="36,45.3 36,55.9 28.8,55.9 28.9,43.1 			"/>
			<polyline class="st2" points="41.9,39.5 48.9,48.3 44.5,52.7 39.3,47.8 			"/>
			<path class="st3" d="M35.1,59.3l-1,16.8c0,1-0.8,1.8-1.7,1.8c0,0,0,0,0,0l0,0c-1,0-1.8-0.8-1.8-1.8l-1-16.8"/>
			<path class="st3" d="M51.2,50.7c0.7,0.7,0.9,1.9,0.5,2.8c-0.4,0.8-0.9,1.5-1.5,2.1C47.8,58,42,64.1,42,64.1
				c-0.6,0.7-1.7,0.9-2.4,0.3c0,0,0,0,0,0c-0.6-0.6-0.6-1.6,0-2.3l4.7-6.8"/>
			<line class="st1" x1="40.2" y1="37.1" x2="28.9" y2="40.2"/>
			<polyline class="st2" points="48.1,17.3 21.4,22 21.3,26.8 			"/>
			<line class="st2" x1="49.7" y1="22" x2="48.1" y2="17.3"/>
		</g>
	</g>
</g>
</svg>
