<?xml version="1.0" encoding="utf-8"?>
<!-- Generator: Adobe Illustrator 26.2.1, SVG Export Plug-In . SVG Version: 6.00 Build 0)  -->
<svg version="1.1" id="Calque_1" xmlns="http://www.w3.org/2000/svg" xmlns:xlink="http://www.w3.org/1999/xlink" x="0px" y="0px"
	 viewBox="0 0 96.5 96.5" style="enable-background:new 0 0 96.5 96.5;" xml:space="preserve">
<style type="text/css">
	.st0{fill:none;stroke:#2753A0;stroke-width:2;stroke-linecap:round;stroke-linejoin:round;}
	.st1{fill:none;stroke:#00DDFF;stroke-width:2;stroke-linecap:round;stroke-linejoin:round;}
	.st2{fill:none;stroke:#E53429;stroke-width:2;stroke-linecap:round;stroke-linejoin:round;}
</style>
<g>
	<path class="st0" d="M53.1,9.4c-1.3,1.1-2.7,2.3-4,3.7c-5.6,5.8-9.2,13.2-10.5,21.2c-1.1,6.4-0.4,4.4-4.3,16.2S28,64.9,25.5,67.4
		l3.7,3.7c2.5-2.4,5.2-4.8,16.9-8.8c9.7-3.2,10.1-3.3,13.5-3.9"/>
	<path class="st0" d="M88.5,41.6c5.7-7.5,7.7-14.8,6.9-21.1"/>
	<path class="st1" d="M25.5,67.4l3.7,3.7c-2.5,2.4-18.5,18.9-20.3,20.6"/>
	<path class="st0" d="M53.1,14.7c0.5-0.5,1-0.9,1.5-1.3s0.8-0.7,1.3-1c1.4-1.1,2.8-2.1,4.4-3c1.4-0.8,2.8-1.5,4.3-2.1
		c0.8-0.3,1.6-0.6,2.5-0.8l0.3-0.1c1.3-0.4,2.6-0.6,4-0.7c1.6-0.1,3.2-0.1,4.7,0.2c0.3,0,0.5,0.1,0.8,0.1h0.2l0,0
		c1.8,0.4,3.4,1,5,1.9c0.4,0.2,0.8,0.5,1.2,0.8c0.9,0.6,1.8,1.3,2.6,2.1c0.7,0.7,1.4,1.5,2,2.4c0.2,0.4,0.5,0.7,0.7,1.1
		c0.9,1.6,1.6,3.4,2,5.2v0.1l0,0c0.1,0.3,0.1,0.6,0.2,0.9c0.2,1.4,0.3,2.8,0.2,4.3c-0.1,1.3-0.3,2.7-0.6,4c-0.1,0.2-0.1,0.5-0.2,0.7
		c-0.2,0.8-0.5,1.7-0.8,2.5c-0.6,1.5-1.3,3-2.1,4.4c-0.7,1.2-1.5,2.4-2.3,3.5"/>
	<path class="st2" d="M60,54c-1,0.1-2.1,0.1-3.1,0h-0.3c-0.2,0-0.4,0-0.7-0.1c-2-0.2-3.9-0.7-5.7-1.5c-0.4-0.2-0.8-0.4-1.2-0.6
		c-0.9-0.5-1.7-1.2-2.4-1.9c-0.8-0.8-1.5-1.7-2-2.7c-0.2-0.4-0.5-0.9-0.7-1.3c-0.8-1.8-1.3-3.7-1.4-5.7v-0.4c0-0.1,0-0.2,0-0.3
		c-0.1-1.8,0-3.6,0.3-5.3c0.2-1.1,0.4-2.2,0.7-3.3c0.1-0.3,0.2-0.6,0.2-0.9c0.2-0.7,0.4-1.3,0.6-2c0.5-1.4,1.1-2.7,1.8-4.1
		c0.9-1.7,1.9-3.3,3-4.8c0.2-0.3,0.5-0.7,0.8-1c0.6-0.8,1.3-1.5,2-2.2c0.4-0.4,0.9-0.9,1.3-1.3"/>
	<line class="st2" x1="22.3" y1="70.5" x2="25.2" y2="75"/>
	<line class="st2" x1="16.8" y1="75.9" x2="19.7" y2="80.5"/>
	<line class="st2" x1="11.4" y1="81.4" x2="14.3" y2="85.9"/>
	<line class="st2" x1="6" y1="86.8" x2="8.9" y2="91.3"/>
	<path class="st1" d="M95.4,20.5c-0.7-4.9-3-9.4-6.5-12.8C80.3-1,67.1-2.1,53.2,9.4"/>
	<path class="st2" d="M9,91.7c-1.8,1.8-0.6,2.3-1.8,3.4s-2.5-0.2-4-1.8s-2.8-2.8-1.8-4c1-1.2,1.6,0,3.4-1.8
		C6.3,86,18,74.6,23.3,69.5l2.2-2.2"/>
	<path class="st1" d="M89.1,55.3c0,6.8-5.5,12.3-12.3,12.2S64.5,62,64.6,55.2c0-6.8,5.5-12.3,12.3-12.2c3.1,0,6.1,1.2,8.3,3.3
		C87.7,48.6,89.1,51.9,89.1,55.3z"/>
	<path class="st2" d="M84.2,65.1c-4.4-5.8-4.4-13.8,0-19.6"/>
	<path class="st2" d="M69.4,65.1c4.4-5.8,4.4-13.8,0-19.6"/>
</g>
</svg>
