<?xml version="1.0" encoding="utf-8"?>
<!-- Generator: Adobe Illustrator 26.2.1, SVG Export Plug-In . SVG Version: 6.00 Build 0)  -->
<svg version="1.1" id="Calque_1" xmlns="http://www.w3.org/2000/svg" xmlns:xlink="http://www.w3.org/1999/xlink" x="0px" y="0px"
	 viewBox="0 0 190.2 51.2" style="enable-background:new 0 0 190.2 51.2;" xml:space="preserve">
<style type="text/css">
	.st0{fill:none;stroke:#E53529;stroke-width:2;stroke-linecap:round;stroke-linejoin:round;}
	.st1{fill:none;stroke:#2753A0;stroke-width:2;stroke-linecap:round;stroke-linejoin:round;}
	.st2{fill:none;stroke:#D1D1D1;stroke-width:2;stroke-miterlimit:10;}
	.st3{fill:none;stroke:#D1D1D1;stroke-width:2;stroke-miterlimit:10;stroke-dasharray:13.14,13.14;}
	.st4{fill:none;stroke:#D1D1D1;stroke-width:2;stroke-miterlimit:10;stroke-dasharray:12.95,12.95;}
	.st5{fill:none;stroke:#D1D1D1;stroke-width:2;stroke-miterlimit:10;stroke-dasharray:10.15,10.15;}
	.st6{fill:none;stroke:#00DDFF;stroke-width:2;stroke-linecap:round;stroke-linejoin:round;}
</style>
<g id="Calque_2_00000067935892146907136140000002801644348337011878_">
	<g id="Calque_1-2">
		<g id="musculation">
			<path class="st0" d="M152.5,27.5c-22.1-2.9-44.4-4.1-66.7-3.6c-11.7,0.3-23.4,1-35.1,2.1"/>
			<path class="st0" d="M179,31.8c2.4,0.4,4.8,1,7.2,1.4c1.7,0.3,2.7-0.7,3-2.4c0.3-1.9-1.3-3.2-3-3.6l-6.5-1.2"/>
			<path class="st1" d="M36,20.5c38.9-5.3,78.3-5.4,117.2-0.3"/>
			<path class="st1" d="M10.6,32c-2.3,0.4-4.5,0.8-6.6,1.4c-1.3,0.3-2.6-0.5-2.9-1.8C1,31.4,1,31.1,1,30.9c0-1.8,1.3-3.3,3-3.6
				c1.5-0.3,3.2-0.7,4.8-1"/>
			<path class="st1" d="M50.8,26c-4.8,0.4-9,1.1-13.8,1.8"/>
			<path class="st2" d="M158.4,46.3c-0.3,1.6-1.8,2.6-3.4,2.4l-2.8-0.4c-0.3,0-0.7-0.1-1-0.3"/>
			<path class="st3" d="M152.4,30.3l4.8-26.9c0.3-1.6,1.8-2.6,3.4-2.4l2.8,0.4c1.6,0.3,2.6,1.8,2.4,3.3l-4.2,24.3"/>
			<path class="st2" d="M159.8,38.1l-1.4,8.2"/>
			<path class="st4" d="M163.7,50.2l-2.8-0.4c-1.6-0.3-2.6-1.8-2.4-3.3l7.3-41.5c0.3-1.5,1.8-2.5,3.4-2.3l2.8,0.4
				c1.6,0.3,2.6,1.8,2.4,3.3L167,47.8C166.7,49.4,165.2,50.4,163.7,50.2z"/>
			<path class="st2" d="M169,36.8l-1.6,8.2"/>
			<path class="st5" d="M158.4,47v-0.7L162,26"/>
			<path class="st2" d="M163.2,19.2l1.4-8.2"/>
			<path class="st1" d="M158.4,46.3c-0.3,1.6-1.8,2.6-3.4,2.4l-2.8-0.4c-1.6-0.3-2.6-1.8-2.4-3.3L152,33"/>
			<path class="st0" d="M152,33l5.2-29.6c0.3-1.6,1.8-2.6,3.4-2.4l2.8,0.4c1.6,0.3,2.6,1.8,2.4,3.3"/>
			<path class="st0" d="M173.5,44.6l-2.8-0.4c-1.6-0.3-2.6-1.8-2.4-3.3l4.8-27.3c0.3-1.6,1.8-2.6,3.4-2.4l2.8,0.4
				c1.5,0.3,2.6,1.8,2.4,3.3l-4.8,27.3C176.6,43.8,175.1,44.8,173.5,44.6z"/>
			<path class="st1" d="M164.6,11l1.1-6.1c0.3-1.5,1.8-2.5,3.3-2.3l2.8,0.4c1.6,0.3,2.6,1.8,2.4,3.3L169,36.7"/>
			<path class="st6" d="M169,36.8l-2,11c-0.3,1.6-1.8,2.6-3.4,2.4l-2.8-0.4c-1.6-0.3-2.6-1.8-2.4-3.3l6.2-35.4"/>
			<path class="st4" d="M34.6,48.6l2.8-0.4c1.6-0.3,2.6-1.8,2.4-3.3L32.5,3.4c-0.3-1.5-1.8-2.6-3.3-2.4l-2.8,0.4
				c-1.6,0.3-2.6,1.8-2.4,3.3l7.3,41.5c0.2,1.5,1.7,2.6,3.2,2.3C34.5,48.6,34.5,48.6,34.6,48.6z"/>
			<path class="st0" d="M16.1,44.6l2.8-0.4c1.6-0.3,2.6-1.8,2.4-3.3l-4.8-27.5c-0.3-1.6-1.8-2.6-3.4-2.4l-2.8,0.4
				c-1.6,0.3-2.7,1.8-2.4,3.3c0,0,0,0.1,0,0.1l4.8,27.3C13,43.8,14.5,44.9,16.1,44.6z"/>
			<path class="st1" d="M11.5,35l1.3,7.2c0.3,1.6,1.8,2.6,3.4,2.3l2.8-0.4c1.6-0.3,2.6-1.8,2.4-3.3l-4.8-27.5
				c-0.3-1.6-1.8-2.6-3.4-2.4l-2.8,0.4"/>
			<path class="st6" d="M34.4,14.9l-2-11.5c-0.3-1.5-1.8-2.6-3.3-2.4l-2.8,0.4c-1.6,0.3-2.6,1.8-2.4,3.3l7.3,41.5"/>
			<path class="st0" d="M31.2,46.3c0.3,1.5,1.8,2.6,3.4,2.3l2.8-0.4c1.6-0.3,2.6-1.8,2.4-3.3l-5.4-30"/>
			<path class="st1" d="M20.5,2.6L17.7,3c-1.6,0.3-2.6,1.8-2.4,3.3l7.3,41.5"/>
			<path class="st6" d="M22.6,47.8c0.3,1.6,1.8,2.6,3.4,2.4l2.8-0.4c1.5-0.3,2.6-1.8,2.4-3.3L23.9,4.9c-0.3-1.5-1.8-2.6-3.4-2.3"/>
		</g>
	</g>
</g>
</svg>
