<?xml version="1.0" encoding="utf-8"?>
<!-- Generator: Adobe Illustrator 26.2.1, SVG Export Plug-In . SVG Version: 6.00 Build 0)  -->
<svg version="1.1" id="Calque_1" xmlns="http://www.w3.org/2000/svg" xmlns:xlink="http://www.w3.org/1999/xlink" x="0px" y="0px"
	 viewBox="0 0 58.7 72.3" style="enable-background:new 0 0 58.7 72.3;" xml:space="preserve">
<style type="text/css">
	.st0{fill:none;stroke:#00DDFF;stroke-width:2;stroke-linecap:round;stroke-linejoin:round;}
	.st1{fill:none;stroke:#E53429;stroke-width:2;stroke-linecap:round;stroke-linejoin:round;}
	.st2{fill:none;stroke:#2753A0;stroke-width:2;stroke-linecap:round;stroke-linejoin:round;}
</style>
<g id="Calque_2_00000095324848995746963910000013026054073669201058_">
	<g id="Calque_1-2">
		<g id="rugby_a_xiii">
			<polyline class="st0" points="14.8,19.5 1,19.5 1,7.1 1,1 34.7,1 34.7,12.8 			"/>
			<line class="st1" x1="17.9" y1="19.5" x2="6.9" y2="19.5"/>
			<line class="st1" x1="34.7" y1="7.1" x2="34.7" y2="15.8"/>
			<polyline class="st0" points="6.9,19.5 1,19.5 1,1 34.7,1 34.7,7.1 			"/>
			<line class="st2" x1="8.3" y1="5.1" x2="14.8" y2="15.4"/>
			<line class="st2" x1="14.8" y1="5.1" x2="8.3" y2="15.4"/>
			<line class="st2" x1="19" y1="5.1" x2="19" y2="15.4"/>
			<line class="st2" x1="23.2" y1="5.1" x2="23.2" y2="15.4"/>
			<line class="st2" x1="27.4" y1="5.1" x2="27.4" y2="15.4"/>
			<line class="st1" x1="25.4" y1="34.5" x2="32.7" y2="27.1"/>
			<path class="st0" d="M42.5,32.2l1.8-3.2c0.8-1.4,1-3.1,0.7-4.7"/>
			<path class="st1" d="M48,24.6c-3.5,0.5-6.8-1.9-7.3-5.4c-0.5-3.5,1.9-6.8,5.4-7.3c3.5-0.5,6.8,1.8,7.3,5.3"/>
			<path class="st2" d="M53.4,17.3c0.5,3.5-1.8,6.8-5.3,7.3"/>
			<path class="st2" d="M13.1,28.9c-0.6,0.2-1.3-0.1-1.6-0.7l0,0c-0.4-0.7-0.1-1.6,0.6-1.9c0,0,0,0,0,0l12.8-6
				c2.7-1.2,5.7-1.1,8.3,0.3l5.1,2.8"/>
			<line class="st2" x1="29.7" y1="25.7" x2="33.3" y2="20.6"/>
			<polyline class="st1" points="13.1,29 28.4,25.1 35.8,28.5 			"/>
			<path class="st1" d="M50.6,45.1c2.4,0.4,4.5,2,4,4.9c-0.5,2.5-1.7,7.9-2.6,12.1"/>
			<path class="st2" d="M46.6,62.1c0.6-3.4,1.2-7.6,1.6-9.6c0.1-0.4-0.1-0.7-1.2-0.7h0.7l3.1-6.7l-0.3-0.1l-9.7-1.8"/>
			<line class="st0" x1="57.7" y1="70.3" x2="30.8" y2="70.3"/>
			<line class="st2" x1="55.8" y1="57.7" x2="57.7" y2="70.3"/>
			<line class="st2" x1="56.9" y1="64.8" x2="39.6" y2="64.8"/>
			<path class="st2" d="M6.6,52.9c0.2-10.2,8.7-18.2,18.8-18c9.8,0.2,17.7,8.1,18,18"/>
			<path class="st1" d="M24.9,60.2c-4,0-7.3-3.3-7.3-7.3c0-4,3.3-7.3,7.3-7.3c0,0,0,0,0,0"/>
			<path class="st2" d="M24.9,38.2c8.1,0,14.7,6.6,14.7,14.7S33,67.5,24.9,67.5c-8.1,0-14.7-6.6-14.7-14.7"/>
			<path class="st0" d="M10.3,52.9c0-8.1,6.6-14.7,14.7-14.7l0,0"/>
			<path class="st0" d="M43.4,52.9c0,10.2-8.2,18.4-18.4,18.4l0,0"/>
			<path class="st2" d="M24.9,71.3C14.8,71.3,6.6,63,6.6,52.9c0,0,0,0,0,0"/>
			<path class="st1" d="M43.3,39.3c-0.7-2.5,1.8-5.4,5.7-6.6c3.9-1.2,7.7-0.1,8.4,2.4s-1.8,5.4-5.7,6.6"/>
		</g>
	</g>
</g>
</svg>
