<?xml version="1.0" encoding="utf-8"?>
<!-- Generator: Adobe Illustrator 26.2.1, SVG Export Plug-In . SVG Version: 6.00 Build 0)  -->
<svg version="1.1" id="Calque_1" xmlns="http://www.w3.org/2000/svg" xmlns:xlink="http://www.w3.org/1999/xlink" x="0px" y="0px"
	 viewBox="0 0 81.8 47.2" style="enable-background:new 0 0 81.8 47.2;" xml:space="preserve">
<style type="text/css">
	.st0{fill:none;}
	.st1{fill:none;stroke:#00DDFF;stroke-width:1.5;stroke-linecap:round;stroke-linejoin:round;}
	.st2{fill:none;stroke:#E53429;stroke-width:1.5;stroke-linecap:round;stroke-linejoin:round;}
	.st3{fill:none;stroke:#2753A0;stroke-width:1.5;stroke-linecap:round;stroke-linejoin:round;}
</style>
<g id="Calque_2_00000066506315736635486500000017312955814636390285_">
	<g id="Calque_1-2">
		<g id="souplesse">
			<rect x="-18.9" y="-36.5" class="st0" width="120" height="120"/>
			<path class="st1" d="M20.3,36.8L4,39.3c-1.1,0.1-2,1-2,2.1c0.1,1.2,1.2,2.1,2.4,1.9c0,0,0,0,0,0l17.2-0.8"/>
			<polyline class="st2" points="40.3,41.4 25.5,42.5 24,35.8 37.8,33.5 			"/>
			<path class="st1" d="M62.5,43.3l14.8,0.5c1.3,0.2,2.5-0.7,2.8-1.9c0.1-1.4-0.9-2.7-2.3-2.8c0,0,0,0,0,0l-16-2.1"/>
			<polyline class="st2" points="42.9,34.9 58.2,36.6 58.8,43 40.3,41.4 			"/>
			<path class="st2" d="M62.4,20.1c1.9,2.1,5.2,2.3,7.3,0.4s2.3-5.2,0.4-7.3c-1.9-2.1-5.2-2.3-7.3-0.4"/>
			<path class="st3" d="M62.8,12.7c-2.1,1.9-2.3,5.2-0.4,7.3"/>
			<path class="st1" d="M42.9,3.9c0,0,4.1,4.8,8.6,10"/>
			<path class="st1" d="M42.9,3.9c-0.7-0.9-2-1-2.8-0.3c-0.1,0.1-0.1,0.1-0.2,0.2l0,0c-0.6,0.9-0.4,2,0.3,2.7l7.4,9.6"/>
			<path class="st3" d="M59.8,23.8c1.6,1.9,1.4,4.7-0.5,6.3l-3.5,3"/>
			<line class="st3" x1="48.5" y1="24.5" x2="37.8" y2="33.5"/>
			<polyline class="st2" points="51.2,14.1 47.5,16.1 52.5,22.4 			"/>
			<line class="st2" x1="51.4" y1="13.9" x2="59.8" y2="23.8"/>
		</g>
	</g>
</g>
</svg>
