<?xml version="1.0" encoding="utf-8"?>
<!-- Generator: Adobe Illustrator 26.2.1, SVG Export Plug-In . SVG Version: 6.00 Build 0)  -->
<svg version="1.1" id="Calque_1" xmlns="http://www.w3.org/2000/svg" xmlns:xlink="http://www.w3.org/1999/xlink" x="0px" y="0px"
	 viewBox="0 0 97.6 79.3" style="enable-background:new 0 0 97.6 79.3;" xml:space="preserve">
<style type="text/css">
	.st0{fill:none;stroke:#2753A0;stroke-width:2;stroke-linecap:round;stroke-linejoin:round;}
	.st1{fill:none;stroke:#00DDFF;stroke-width:2;stroke-linecap:round;stroke-linejoin:round;}
	.st2{fill:none;stroke:#E53429;stroke-width:2;stroke-linecap:round;stroke-linejoin:round;}
</style>
<g id="Calque_2_00000045599562638932219800000018362509525413343618_">
	<g id="Calque_1-2">
		<g id="tennis_de_table">
			<path class="st0" d="M49.6,76.8c1.2,0.6,2.7,0.1,3.3-1.1c0,0,0,0,0,0l7.4-15.2c1.2-2.2,3.5-3.6,6-3.5c2.2,0.2,4.4,0.2,6.5,0.1"/>
			<path class="st0" d="M48.5,48.2c1.8,1.8,2.2,4.5,1.2,6.8l-3.2,6.4"/>
			<path class="st0" d="M85.1,61.9c4.5,0,8.2,3.7,8.2,8.2c0,4.5-3.7,8.2-8.2,8.2c-4.5,0-8.2-3.7-8.2-8.2c0,0,0,0,0,0"/>
			<path class="st1" d="M76.9,70.1c0-4.5,3.7-8.2,8.2-8.2c0,0,0,0,0,0"/>
			<path class="st0" d="M2.5,37.8c3.7,10.8,13.8,18.3,25.2,18.7c2.5,0,4.8,1.6,5.6,4L39,76.6c0.4,1.3,1.8,2,3.1,1.5c0,0,0,0,0,0
				l6.7-2.3c1.3-0.4,2-1.8,1.5-3.1c0,0,0,0,0,0l-5.5-15.9c-0.7-2.4,0-5,1.8-6.8c11.7-9.9,13.3-27.4,3.4-39.2
				C43.3,3,32.9-0.5,22.8,1.6"/>
			<line class="st0" x1="23" y1="55.9" x2="50.2" y2="46.5"/>
			<path class="st1" d="M22.8,1.6C7.8,4.9-1.7,19.8,1.7,34.8c0.2,1,0.5,2,0.9,3"/>
			<path class="st1" d="M16.8,10.2C11.2,14,7.7,20.2,7.2,27"/>
			<path class="st2" d="M58.6,14.2L65.1,2c-3,0.4-5.8,1.3-8.5,2.6"/>
			<path class="st2" d="M54.2,49.3L78.5,3.6c-2-0.8-4.1-1.3-6.3-1.6"/>
			<path class="st2" d="M59.5,25.9L72.2,2c-2.4-0.3-4.8-0.3-7.2,0"/>
			<path class="st2" d="M56.6,4.6c-1.7,0.8-3.2,1.8-4.7,2.9"/>
			<path class="st2" d="M93.2,16.3L71.7,56.6l1.2,0.5c2.3-0.3,4.6-1,6.7-1.9l16.5-31C95.5,21.4,94.5,18.8,93.2,16.3z"/>
			<path class="st2" d="M95.4,37.8c1.4-4.4,1.6-9.1,0.7-13.6l-16.5,31C87.2,52,93,45.7,95.4,37.8z"/>
			<path class="st2" d="M89.1,10.6L65.9,54.2l5.8,2.5l21.4-40.3C92,14.2,90.7,12.3,89.1,10.6z"/>
			<path class="st2" d="M84.1,6.4L60,51.7l5.8,2.4l23.2-43.6C87.6,9,85.9,7.6,84.1,6.4z"/>
			<path class="st2" d="M82.4,5.3c-1.2-0.7-2.5-1.3-3.8-1.7L54.2,49.3l5.8,2.4L84.1,6.4C83.6,6,83,5.6,82.4,5.3z"/>
		</g>
	</g>
</g>
</svg>
