<?xml version="1.0" encoding="utf-8"?>
<!-- Generator: Adobe Illustrator 26.2.1, SVG Export Plug-In . SVG Version: 6.00 Build 0)  -->
<svg version="1.1" id="Calque_1" xmlns="http://www.w3.org/2000/svg" xmlns:xlink="http://www.w3.org/1999/xlink" x="0px" y="0px"
	 viewBox="0 0 87.8 114.1" style="enable-background:new 0 0 87.8 114.1;" xml:space="preserve">
<style type="text/css">
	.st0{fill:none;stroke:#2753A0;stroke-width:2;stroke-linecap:round;stroke-linejoin:round;}
	.st1{fill:none;stroke:#E53429;stroke-width:2;stroke-linecap:round;stroke-linejoin:round;}
	.st2{fill:none;stroke:#00DDFF;stroke-width:2;stroke-linecap:round;stroke-linejoin:round;}
</style>
<g id="Calque_2_00000034051111356719286300000009201593951986185607_">
	<g id="Calque_1-2">
		<g id="tir_a_larc">
			<line class="st0" x1="32.4" y1="39.6" x2="32.4" y2="4.4"/>
			<line class="st1" x1="32.4" y1="53.6" x2="32.4" y2="39.6"/>
			<line class="st1" x1="32.4" y1="92.5" x2="32.4" y2="60.5"/>
			<line class="st2" x1="32.4" y1="108.7" x2="32.4" y2="92.5"/>
			<line class="st2" x1="42.6" y1="37.2" x2="46.2" y2="41.5"/>
			<path class="st0" d="M28.8,4.2C52.2,4.2,59,18.3,59,18.3"/>
			<path class="st0" d="M28.8,109.6c23.4,0,30.1-14.1,30.1-14.1"/>
			<path class="st2" d="M47.1,57l2-6c-1.7-2.9-2.7-6.2-2.9-9.5"/>
			<path class="st0" d="M42.6,37.2c-3.3,6,2.3,12.1-1.1,19.8"/>
			<path class="st1" d="M46.2,41.5c0-4.9,6.2-21.6,8.8-21.6"/>
			<path class="st1" d="M46.4,13c-3,2.8-2.1,13.6,0,15.3"/>
			<line class="st1" x1="47.5" y1="17.5" x2="52.9" y2="22"/>
			<path class="st0" d="M44.6,10.1c0,0,8.1,8.7-2.1,27.2"/>
			<line class="st2" x1="42.6" y1="76.8" x2="46.2" y2="72.5"/>
			<path class="st2" d="M47.1,57l2,6c-1.7,2.9-2.7,6.1-2.9,9.5"/>
			<path class="st0" d="M42.6,76.8c-3.3-6,2.3-12.1-1.1-19.8"/>
			<path class="st1" d="M46.2,72.5c0,4.9,6.2,21.6,8.8,21.6"/>
			<path class="st1" d="M46.4,101c-3-2.7-2.1-13.6,0-15.3"/>
			<line class="st1" x1="47.5" y1="96.6" x2="52.9" y2="92.1"/>
			<path class="st0" d="M44.6,104c0,0,8.1-8.7-2.1-27.2"/>
			<line class="st0" x1="37.3" y1="57" x2="12.1" y2="57"/>
			<line class="st2" x1="64.7" y1="57" x2="51.3" y2="57"/>
			<line class="st1" x1="79.1" y1="57" x2="58.1" y2="57"/>
			<polygon class="st2" points="1,60.5 4,57 13.8,57 7.5,58.7 			"/>
			<polygon class="st1" points="1,53.6 4,57 13.8,57 7.5,55.3 			"/>
			<polygon class="st1" points="86.8,57 79.1,53.5 79.1,60.5 			"/>
			<path class="st0" d="M28.8,4.1c0.1-1.8,1.6-3.2,3.4-3.1c1.8,0.1,3.2,1.6,3.1,3.4l0,0"/>
			<path class="st0" d="M28.8,109.9c0.1,1.8,1.6,3.2,3.4,3.1s3.2-1.6,3.1-3.4"/>
		</g>
	</g>
</g>
</svg>
