<svg xmlns="http://www.w3.org/2000/svg" viewBox="0 0 120 120"><defs><style>.cls-2,.cls-3,.cls-4{fill:none}.cls-2{stroke:#0df}.cls-2,.cls-3,.cls-4{stroke-linecap:round;stroke-linejoin:round;stroke-width:1.5px}.cls-3{stroke:#e53429}.cls-4{stroke:#2753a0}</style></defs><g id="Calque_2" data-name="Calque 2"><g id="Calque_1-2" data-name="Calque 1"><g id="adresse"><path fill="none" d="M0 0h120v120H0z"/><path class="cls-2" d="M53.65 78l1.89 17.24A1.94 1.94 0 0154 97.32a2.23 2.23 0 01-2.41-1.73l-2.27-16.66"/><path class="cls-2" d="M41.46 78.35l-2.88 16a1.93 1.93 0 001.54 2.1 2.24 2.24 0 002.45-1.67l3.72-16.11"/><path class="cls-3" d="M52.34 65.63l1.33 9.99-3.36.69"/><path class="cls-3" d="M48.12 69.42l-.6 7.2-6.93-.52 1.38-10.47"/><path class="cls-4" d="M52.73 63.16H42.11l.05-12.72"/><path class="cls-2" d="M48.54 39.82a4.76 4.76 0 004.76-4.75"/><path class="cls-3" d="M53.3 35.07a4.76 4.76 0 10-4.76 4.75"/><path class="cls-4" d="M68 22.67a26 26 0 010 36.83"/><path class="cls-3" d="M62.15 41.09h19.28"/><path class="cls-4" d="M62.15 44.4h9.65"/><path class="cls-3" d="M79.25 38.91l2.18 2.18-2.18 2.18"/><path class="cls-4" d="M56 41.84a2 2 0 012.17 1.45 2.07 2.07 0 01-1.49 2.62l-8.81 3-6.77-1.67a2.2 2.2 0 01-2-2.71 2.19 2.19 0 012.21-1.66"/><path class="cls-2" d="M41.24 42.89l6.51 1.61 8.22-2.66"/><path class="cls-3" d="M60.08 47.07l7.86 7.86"/><path class="cls-3" d="M67.94 27l-11.6 11.59"/><path class="cls-4" d="M52.77 50.63l-.04 12.53"/></g></g></g></svg>
