<?xml version="1.0" encoding="utf-8"?>
<!-- Generator: Adobe Illustrator 26.2.1, SVG Export Plug-In . SVG Version: 6.00 Build 0)  -->
<svg version="1.1" id="Calque_1" xmlns="http://www.w3.org/2000/svg" xmlns:xlink="http://www.w3.org/1999/xlink" x="0px" y="0px"
	 viewBox="0 0 75.6 75.6" style="enable-background:new 0 0 75.6 75.6;" xml:space="preserve">
<style type="text/css">
	.st0{fill:none;stroke:#E53429;stroke-width:2;stroke-linecap:round;stroke-linejoin:round;}
	.st1{fill:none;stroke:#00DDFF;stroke-width:2;stroke-linecap:round;stroke-linejoin:round;}
	.st2{fill:none;stroke:#2753A0;stroke-width:2;stroke-linecap:round;stroke-miterlimit:10;}
</style>
<g id="Calque_2_00000173157540340458729630000008763548517308923317_">
	<g id="Calque_1-2">
		<g id="basket">
			<path class="st0" d="M67.7,59.3c11.9-16.5,8.1-39.5-8.4-51.4S19.8-0.2,7.9,16.3C0.7,26.4-1,39.5,3.5,51.1"/>
			<path class="st1" d="M3.5,51.1c7.4,19,28.7,28.4,47.7,21c6.6-2.6,12.4-7,16.6-12.8"/>
			<path class="st2" d="M73.7,29.7c-10.8-11.1-26-16.8-41.5-15.6C8.2,15.9,1.1,35.2,1.1,35.2"/>
			<path class="st0" d="M32.3,1.3c0,0-2.4,11.2,0,32.7s12,40,12,40"/>
			<path class="st1" d="M52.5,4c0,0-11.2,1.5-11.2,12.3c0,8.1,6.1,15.2,14.4,23.7s13.5,13.4,11.9,19.4"/>
			<path class="st2" d="M15.3,8.6c4.5,0.7,7.7,4.7,7.5,9.2c0,5.5-2.4,13.3-5.9,23.3s-6.5,19-0.7,26.4"/>
		</g>
	</g>
</g>
</svg>
