<?xml version="1.0" encoding="utf-8"?>
<!-- Generator: Adobe Illustrator 26.2.1, SVG Export Plug-In . SVG Version: 6.00 Build 0)  -->
<svg version="1.1" id="Calque_1" xmlns="http://www.w3.org/2000/svg" xmlns:xlink="http://www.w3.org/1999/xlink" x="0px" y="0px"
	 viewBox="0 0 94.7 62.6" style="enable-background:new 0 0 94.7 62.6;" xml:space="preserve">
<style type="text/css">
	.st0{fill:none;stroke:#2753A0;stroke-width:2;stroke-linecap:round;stroke-linejoin:round;}
	.st1{fill:none;stroke:#E53429;stroke-width:2;stroke-linecap:round;stroke-linejoin:round;}
	.st2{fill:none;stroke:#00DDFF;stroke-width:2;stroke-linecap:round;stroke-linejoin:round;}
	.st3{fill:#E53429;}
</style>
<g id="Calque_2_00000098920837895683491250000009077725928937329827_">
	<g id="Calque_1-2">
		<g id="chocs_chutes_plongeons">
			<polyline class="st0" points="80.6,37.2 58.8,24.6 68.8,1 			"/>
			<line class="st1" x1="93.7" y1="17.6" x2="80.6" y2="37.2"/>
			<path class="st0" d="M64.5,52.4c-0.7-0.1-1.4-0.3-2-0.6L19.1,24.5c-2.4-6.8,4.7-9,4.7-9"/>
			<path class="st2" d="M23.8,15.5c0,0,6.8,3.9,11.4,4.6c18.6,2.8,24,10.9,24,10.9"/>
			<line class="st0" x1="80.6" y1="37.2" x2="76.9" y2="42.8"/>
			<line class="st0" x1="61.1" y1="26.8" x2="58.5" y2="32.7"/>
			<path class="st0" d="M19.1,24.5c0,0-10.2,7.1-13.5,11.7c-2.4,3.3-5.8,2.3-4.2-3.5"/>
			<path class="st1" d="M1.4,32.7L15.1,8.4c3.1-0.7,7.7,1,8.8,7.1"/>
			<polygon class="st3" points="69.8,42.8 72.4,47.2 82.7,43.8 74.1,49.9 76.7,54.3 72,52.3 66.3,62.6 69.1,51.1 64.3,49 69.4,47.9 
							"/>
		</g>
	</g>
</g>
</svg>
