<?xml version="1.0" encoding="utf-8"?>
<!-- Generator: Adobe Illustrator 26.2.1, SVG Export Plug-In . SVG Version: 6.00 Build 0)  -->
<svg version="1.1" id="Calque_1" xmlns="http://www.w3.org/2000/svg" xmlns:xlink="http://www.w3.org/1999/xlink" x="0px" y="0px"
	 viewBox="0 0 74.3 78.8" style="enable-background:new 0 0 74.3 78.8;" xml:space="preserve">
<style type="text/css">
	.st0{fill:none;stroke:#2755A0;stroke-width:2;stroke-linecap:round;stroke-linejoin:round;}
	.st1{fill:none;stroke:#00DDFF;stroke-width:2;stroke-linecap:round;stroke-linejoin:round;}
	.st2{fill:none;stroke:#E53429;stroke-width:2;stroke-linecap:round;stroke-linejoin:round;}
</style>
<g id="Calque_2_00000088818190037717435320000009858267617763067808_">
	<g id="Calque_1-2">
		<g id="debout">
			<path class="st0" d="M48.8,50.4l5.6,4.3c1,1.1,1,2.7,0,3.8L35.9,77.2c-0.3,0.4-0.8,0.6-1.3,0.6l0,0c-1,0-1.8-0.8-1.8-1.8
				c0-0.3,0.1-0.7,0.3-1l12-16.6l-2.6-1.7"/>
			<polyline class="st1" points="32.3,52.4 41.3,57.4 50.5,48.1 43.3,42.9 52.2,31.2 			"/>
			<line class="st0" x1="39" y1="14.4" x2="38.7" y2="20.4"/>
			<line class="st2" x1="35.2" y1="16.2" x2="25.8" y2="26.6"/>
			<path class="st2" d="M49.6,14.6c-6.2-0.6-11.5-1.3-14.4,1.7"/>
			<path class="st0" d="M25.8,26.6c-0.9,1-0.8,2.5,0.1,3.4c0.1,0.1,0.1,0.1,0.2,0.2l0,0c1.1,0.5,2.4,0.2,3.2-0.7l9.3-9.1l2.9,1"/>
			<path class="st0" d="M16.6,55.2c-0.4,0.8-0.9,1.5-1.5,2.1C13.7,59.1,1.4,74.6,1.4,74.6c-0.8,1.3-0.4,2.9,0.9,3.1l0,0
				c0.8,0.1,1.7-0.2,2.2-0.8l19.6-19.4"/>
			<path class="st0" d="M43.3,42.9l-13.3-5l13.1-18.7c3-4.6,8.9-5.5,11-4.3"/>
			<path class="st2" d="M61.9,26.1c-4.5,1.5-5.5-1.6-7.5-5.3l-0.4-0.9"/>
			<line class="st0" x1="47.3" y1="26.1" x2="49.7" y2="28.8"/>
			<polyline class="st2" points="30,38 15.6,54.8 25.5,57.9 36.4,46.4 			"/>
			<line class="st1" x1="58.2" y1="27.6" x2="70.3" y2="23"/>
			<path class="st0" d="M70.3,23c1-0.5,2.3-0.1,2.8,1c0,0,0,0,0,0l0,0c0.4,1.4-0.2,3-1.6,3.6L63,31.2c-5.1,2-10.2,1.1-13.4-2.5"/>
			<path class="st2" d="M66.9,7.2c-0.9-4.2-5-7-9.3-6.1c-4.2,0.9-7,5-6.1,9.3s5,7,9.3,6.1c0,0,0,0,0,0"/>
			<path class="st0" d="M60.8,16.6c4.2-0.9,6.9-5,6.1-9.3c0,0,0,0,0,0"/>
		</g>
	</g>
</g>
</svg>
