<?xml version="1.0" encoding="utf-8"?>
<!-- Generator: Adobe Illustrator 26.2.1, SVG Export Plug-In . SVG Version: 6.00 Build 0)  -->
<svg version="1.1" id="Calque_1" xmlns="http://www.w3.org/2000/svg" xmlns:xlink="http://www.w3.org/1999/xlink" x="0px" y="0px"
	 viewBox="0 0 76.5 80.1" style="enable-background:new 0 0 76.5 80.1;" xml:space="preserve">
<style type="text/css">
	.st0{fill:none;}
	.st1{fill:none;stroke:#00DDFF;stroke-width:1.5;stroke-linecap:round;stroke-linejoin:round;}
	.st2{fill:none;stroke:#E53429;stroke-width:1.5;stroke-linecap:round;stroke-linejoin:round;}
	.st3{fill:none;stroke:#2753A0;stroke-width:1.5;stroke-linecap:round;stroke-linejoin:round;}
</style>
<g id="Calque_2_00000029024379186425489370000018263046495944389772_">
	<g id="Calque_1-2">
		<g id="force">
			<rect x="-21.3" y="-19.4" class="st0" width="120" height="120"/>
			<polyline class="st1" points="29.9,12.2 32,22.7 35.7,26.5 			"/>
			<polyline class="st1" points="27.3,12.1 28.4,24.5 33.1,30.8 			"/>
			<polyline class="st1" points="47.1,12.2 44.4,22.7 41.7,26.5 			"/>
			<polyline class="st1" points="49.6,12.1 48.6,24.5 44.3,30.8 			"/>
			<path class="st2" d="M38.8,22.4c2.3-0.1,4.1-2,4-4.3c-0.1-2.3-2-4.1-4.3-4c-2.3,0.1-4.1,2-4,4.3c0,0,0,0,0,0"/>
			<path class="st3" d="M34.5,18.4c0.1,2.3,2,4.1,4.3,4c0,0,0,0,0,0"/>
			<path class="st3" d="M17.9,10c5.1-0.5,12-0.8,21-0.8c8.6,0,15.3,0.3,20.3,0.8"/>
			<path class="st2" d="M4.6,11.7c-0.3-1.4,0.5-2.8,2-3.1"/>
			<path class="st2" d="M7.8,13.7c-1.4,0.3-2.8-0.6-3.2-2c0,0,0,0,0,0"/>
			<path class="st3" d="M70.8,9.3c1.4,0.2,2.4,1.6,2.2,3c-0.2,1.4-1.4,2.3-2.8,2.2c-0.2,0-0.4,0-0.6-0.1"/>
			<line class="st0" x1="58.6" y1="14.2" x2="57.9" y2="18.7"/>
			<line class="st0" x1="62.3" y1="14.5" x2="61.6" y2="19"/>
			<line class="st0" x1="57.9" y1="18.6" x2="59.3" y2="10.5"/>
			<line class="st0" x1="59.7" y1="7.8" x2="60.5" y2="3.3"/>
			<path class="st2" d="M62.1,16.3l2.1-11.9c0.1-0.7,0.8-1.1,1.4-1l1.2,0.2c0.7,0.1,1.1,0.8,1,1.4l-2.1,11.9c-0.1,0.7-0.8,1.1-1.4,1
				l-1.2-0.2C62.4,17.6,61.9,16.9,62.1,16.3z"/>
			<path class="st2" d="M10.4,3.6l1.2-0.2c0.7-0.1,1.3,0.3,1.4,1l2.1,11.9c0.1,0.7-0.3,1.3-1,1.4l-1.2,0.2c-0.7,0.1-1.3-0.3-1.4-1
				L9.4,5C9.3,4.3,9.8,3.7,10.4,3.6z"/>
			<path class="st3" d="M10.9,13.8l0.5,3.1c0.1,0.7,0.8,1.1,1.5,1l1.2-0.2c0.7-0.1,1.1-0.8,1-1.5l-2-11.9c-0.1-0.7-0.8-1.1-1.5-1
				l-1.2,0.2"/>
			<path class="st1" d="M29.1,6.2C29,5.5,28.4,4.9,27.6,5c0,0-0.1,0-0.1,0l0,0c-0.7,0.2-1.1,0.9-1,1.6"/>
			<path class="st1" d="M48.2,6.2c0.1-0.7,0.7-1.3,1.4-1.3c0,0,0.1,0,0.1,0l0,0c0.6,0.2,1,0.9,0.9,1.6"/>
			<polyline class="st3" points="41.2,25.6 44.3,30.8 43.5,44.1 33.9,44.1 33.1,30.8 36.2,25.6 			"/>
			<path class="st3" d="M38.7,26.4c0.9,0,1.7-0.3,2.5-0.7"/>
			<path class="st3" d="M38.7,26.4c-0.9,0-1.7-0.3-2.5-0.7"/>
			<polyline class="st2" points="38.6,51.7 37.3,57.4 31.7,56.7 33.9,46.7 			"/>
			<path class="st1" d="M36.2,60l-2.8,16.6c-0.1,0.8-0.8,1.3-1.6,1.2c0,0,0,0,0,0l0,0c-0.7-0.1-1.3-0.8-1.2-1.6L32,59.3"/>
			<polyline class="st2" points="38.9,51.7 40.2,57.4 45.7,56.7 43.5,46.7 			"/>
			<path class="st1" d="M41.2,60L44,76.6c0.1,0.8,0.8,1.3,1.6,1.2c0,0,0,0,0,0l0,0c0.7-0.1,1.3-0.8,1.2-1.6l-1.3-16.8"/>
		</g>
	</g>
</g>
</svg>
