<?xml version="1.0" encoding="utf-8"?>
<!-- Generator: Adobe Illustrator 26.2.1, SVG Export Plug-In . SVG Version: 6.00 Build 0)  -->
<svg version="1.1" id="Calque_1" xmlns="http://www.w3.org/2000/svg" xmlns:xlink="http://www.w3.org/1999/xlink" x="0px" y="0px"
	 viewBox="0 0 76.4 132.8" style="enable-background:new 0 0 76.4 132.8;" xml:space="preserve">
<style type="text/css">
	.st0{fill:none;stroke:#2755A0;stroke-width:2;stroke-linecap:round;stroke-linejoin:round;}
	.st1{fill:none;stroke:#00DDFF;stroke-width:2;stroke-linecap:round;stroke-linejoin:round;}
	.st2{fill:none;stroke:#E53429;stroke-width:2;stroke-linecap:round;stroke-linejoin:round;}
</style>
<g id="Calque_2_00000128480788391569375210000010200101695545192368_">
	<g id="Calque_1-2">
		<g id="loisir">
			<path class="st0" d="M50.3,104.7l5.6,4.3c1,1.1,1,2.7,0,3.8l-18,17.4c-0.3,0.4-0.8,0.6-1.3,0.6l0,0c-1,0-1.8-0.8-1.8-1.8
				c0-0.3,0.1-0.7,0.3-0.9l9.9-14.4l-1.8-1.5"/>
			<polyline class="st1" points="31.5,107.4 41.7,113.4 51.1,105.3 42.3,99 51.2,87.3 			"/>
			<line class="st0" x1="38" y1="70.5" x2="37.7" y2="76.4"/>
			<line class="st2" x1="34.2" y1="72.3" x2="24.8" y2="82.7"/>
			<path class="st2" d="M48.6,70.6c-6.2-0.6-11.5-1.3-14.4,1.7"/>
			<path class="st0" d="M24.8,82.7c-0.9,1-0.8,2.5,0.2,3.4c0.1,0.1,0.1,0.1,0.2,0.2l0,0c1.1,0.5,2.4,0.2,3.2-0.7l9.3-9.1l2.9,1"/>
			<path class="st0" d="M15.7,111.3c-0.4,0.8-0.9,1.5-1.5,2.1c-1.5,1.7-12.7,15.3-12.7,15.3c-0.8,1.3-0.4,2.9,0.9,3.1l0,0
				c0.8,0.1,1.7-0.2,2.3-0.8l18.6-17.4"/>
			<path class="st0" d="M42.3,99l-13.3-5l13.2-18.7c3-4.6,8.9-5.6,11-4.3"/>
			<path class="st2" d="M60.9,82.2c-4.5,1.5-5.5-1.6-7.5-5.3L53,76"/>
			<line class="st0" x1="46.3" y1="82.2" x2="48.7" y2="84.8"/>
			<polyline class="st2" points="29.1,94 14.6,110.9 24.5,114 35.4,102.4 			"/>
			<line class="st1" x1="57.2" y1="83.7" x2="69.4" y2="79"/>
			<path class="st0" d="M69.4,79c1-0.5,2.3,0,2.8,1c0,0,0,0,0,0l0,0c0.4,1.4-0.3,3-1.6,3.6l-8.5,3.6c-5.1,2-10.3,1.1-13.4-2.5"/>
			<path class="st2" d="M65.9,63.3c-0.9-4.2-5-7-9.3-6.1c-4.2,0.9-7,5-6.1,9.3c0.9,4.2,5,7,9.3,6.1c0,0,0,0,0,0"/>
			<path class="st0" d="M59.9,72.6c4.2-0.9,6.9-5,6.1-9.3"/>
			<path class="st0" d="M75.4,26.1c-6.9,1-9.1,8.4-9.7,11.4c0,0-3-7.6-7.1-7.6"/>
			<path class="st1" d="M10.6,9.1c10.2,0.7,14.3,14.9,14.3,14.9C27.4,9.4,40.2,1,40.2,1"/>
		</g>
	</g>
</g>
</svg>
