<svg xmlns="http://www.w3.org/2000/svg" viewBox="0 0 220 220"><defs><style>.cls-1{fill:none;}.cls-2{fill:#2753a0;}.cls-3{fill:#e53429;}.cls-4{fill:#4bdfff;}</style></defs><g id="Calque_2" data-name="Calque 2"><g id="Calque_1-2" data-name="Calque 1"><g id="autre"><path class="cls-2" d="M75.86,168.91a16.29,16.29,0,0,0-.71-2.89c-.31-.89-.66-1.77-1-2.64a.72.72,0,0,0-.1-.18.65.65,0,0,1-.1-.19c-.27-1.11-.57-2.34-.94-3.71a1,1,0,0,1-.62-.24c-.09-1.06-17.23-51.19-17.7-52.47a5.21,5.21,0,0,0-1.42-2.42c0-.19,0-.39,0-.58s0-.4,0-.6a2.19,2.19,0,0,0-.23-.82,6.07,6.07,0,0,1-.86-1.87c-.15-.59-.31-1.26-.49-2a1.84,1.84,0,0,0-.27-.52c-.11-.15-.24-.31-.37-.46a1.24,1.24,0,0,1-.07.4q-.06.09,0,.36c.18.63.39,1.23.61,1.81s.44,1.17.65,1.78l.14.41a14.54,14.54,0,0,0,1,3.41c.46,1.13,17.71,51.25,18,52.43a15.75,15.75,0,0,0,.56,1.68l.65,1.78c.09.28.17.53.23.75s.14.48.23.75c.31,1,.61,2,.9,2.9s.61,1.91,1,2.88m3.41-.14-.39-.46c-.13-.15-.24-.23-.3-.2s-.12.15-.14.35a1.25,1.25,0,0,0,.06.58m-2.9.71c-.2-.63-.42-1.29-.67-2a1.15,1.15,0,0,0-.12-.25,1.51,1.51,0,0,1-.12-.26c-.31-1-.63-2-1-3.11s-.67-2.11-1-3.1c-.13-.45-.29-.95-.49-1.47s-.38-1-.54-1.47L52.49,105c-.25-.71-.52-1.44-.8-2.2s-.55-1.48-.79-2.18c-.5-1.42-1-2.82-1.5-4.19s-1-2.82-1.5-4.35c-.15-.45-.31-.94-.48-1.48s-.34-1-.49-1.47c-.28-.8-.57-1.58-.84-2.33s-.59-1.52-.9-2.3l-1.53-4c-.51-1.36-1-2.7-1.58-4-.28-.7-.56-1.38-.85-2s-.57-1.32-.85-2c-.47-1.22-.43-1.89.11-2a6.71,6.71,0,0,0,1.35,0,8.62,8.62,0,0,1,1.35,0,3,3,0,0,1,.71.13c.23.06.51.44.83,1.13a1.42,1.42,0,0,0,.39.54,2.76,2.76,0,0,1,.39.38,11.29,11.29,0,0,1,.86,1.13,6.23,6.23,0,0,1,.68,1.62,11.09,11.09,0,0,0,.68,1.79,15.48,15.48,0,0,1,.74,1.76c.41,1,.81,1.91,1.21,2.87a26.26,26.26,0,0,1,1,3A23.23,23.23,0,0,0,52,88.43a4.26,4.26,0,0,1,.3.95c.07.37.17.79.29,1.24a3.15,3.15,0,0,1,.75,2,6.43,6.43,0,0,0,.28,1,5,5,0,0,1,.07,1,2,2,0,0,1,0,.39,1.11,1.11,0,0,0,0,.36,1.4,1.4,0,0,1,.25.22,1.84,1.84,0,0,0,.25.21.41.41,0,0,1,.36,0c.21.72.41,1.38.59,2s.41,1.23.66,1.94.56,1.45.84,2.25a12.54,12.54,0,0,1,.59,2.34,6.23,6.23,0,0,0,.42,1.35c.18.44.36.88.52,1.32.21.62,17.17,50,17.17,50.18a8.79,8.79,0,0,0,.47,2.76c.31.94.62,1.9.93,2.89a19.12,19.12,0,0,0,.72,2.06,5,5,0,0,1,.37,2,1.11,1.11,0,0,0,.17.47c.11.21.21.4.31.56"/><path class="cls-2" d="M59.84,76.29a.33.33,0,0,1,.07.13.5.5,0,0,0,0,.16.35.35,0,0,0,.06.18.69.69,0,0,1,.1.24,4.58,4.58,0,0,1-1.38-.55l-1.24-.73a.15.15,0,0,0-.11.1l.44.3a5.76,5.76,0,0,0,.66.4l.66.4a3.83,3.83,0,0,1,.43.31l0,.07a.1.1,0,0,1-.09,0,.1.1,0,0,0-.09,0,2.5,2.5,0,0,0-.47-.11c-.25,0-.51-.08-.79-.14l-.78-.14-.49-.06a.24.24,0,0,0-.17,0,.28.28,0,0,1-.17,0c-.48-.17-.94-.36-1.38-.55a12.7,12.7,0,0,0-1.33-.53l-1.43-.51c-.47-.16-.94-.34-1.42-.54s-1.14-.47-1.69-.73-1.1-.52-1.67-.77-1.29-.51-1.91-.79a16.41,16.41,0,0,0-1.89-.68,5.74,5.74,0,0,1-1.38-.5c-.41-.21-.84-.42-1.32-.62s-.67-.42-.72-.65a4.87,4.87,0,0,1-.11-.78,2.66,2.66,0,0,1,.29-1.26,4.58,4.58,0,0,1,.61-1.09.36.36,0,0,1,.41-.08,27,27,0,0,1,2.52,1.09l3.06,1.49a4.23,4.23,0,0,1,.41.23l.54.33a2,2,0,0,1,.94.27,1.84,1.84,0,0,1,.82.64,2.36,2.36,0,0,1,1.06.33,9,9,0,0,0,1,.48,3.52,3.52,0,0,1,.42.15l.39.19a.2.2,0,0,0,.11,0,.29.29,0,0,1,.1,0c.28.2.55.38.84.55s.57.33.87.48l.38.16.44.14.45.22a3.46,3.46,0,0,1,.42.26,2,2,0,0,1,.37.3,3,3,0,0,0,.33.28,1.84,1.84,0,0,0,.14.14.92.92,0,0,1,.15.14l.15-.31,1.8,1,1.81,1.06s0,.07,0,.08a.15.15,0,0,0,0,.09l-.24,0-.24,0s0,.05,0,.1a1.57,1.57,0,0,1,.32,0l.31,0q.39.09.42.15a1.38,1.38,0,0,1,.08.27,1.34,1.34,0,0,0,.09.26,1.38,1.38,0,0,1-.39,0,2.6,2.6,0,0,1-.42-.15.67.67,0,0,0-.38-.09c-.32,0-.43-.17-.35-.42s0-.46-.32-.59A.29.29,0,0,1,59.84,76.29Zm-4.76-2.13a.15.15,0,0,1,.11-.1l-.14-.16a.22.22,0,0,0-.17-.09l-.34,0-.42,0a.42.42,0,0,1,0,.09s0,0,0,.08a1.65,1.65,0,0,1,.44.1Zm4.2,1.66a.86.86,0,0,0-.27-.08,1,1,0,0,1-.26-.09c-.4-.19-.78-.38-1.15-.58s-.76-.4-1.15-.59a.28.28,0,0,0-.17,0h-.19a.41.41,0,0,1,.1.18.29.29,0,0,0,.12.13,6.26,6.26,0,0,0,.55.31l.57.28.56.3c.17.1.36.2.55.29s.34.16.51.23a4.46,4.46,0,0,1,.5.22l0-.08A3.65,3.65,0,0,0,59.28,75.82Z"/><path class="cls-2" d="M34.34,87.75a.27.27,0,0,1-.14.06.54.54,0,0,0-.17,0,.35.35,0,0,0-.18.06.65.65,0,0,1-.26.09,4.69,4.69,0,0,1,.55-1.38c.25-.41.49-.82.73-1.23a.14.14,0,0,0-.1-.11,3.07,3.07,0,0,0-.31.43,7.65,7.65,0,0,0-.4.66c-.14.24-.27.46-.4.66s-.24.34-.31.43l-.09,0a.1.1,0,0,1,0-.09.1.1,0,0,0,0-.09,2,2,0,0,0,.1-.47c0-.25.08-.52.13-.8s.09-.54.13-.79a4,4,0,0,0,.06-.49.29.29,0,0,0,0-.17.28.28,0,0,1,0-.17c.17-.48.35-1,.55-1.38s.37-.88.52-1.34l.49-1.44c.16-.46.34-.94.54-1.41s.46-1.15.72-1.7.53-1.1.77-1.67.51-1.29.78-1.91a15.35,15.35,0,0,0,.67-1.9,5.55,5.55,0,0,1,.49-1.39c.22-.4.42-.84.62-1.31s.43-.67.66-.72a4.56,4.56,0,0,1,.82-.09,2.94,2.94,0,0,1,1.33.32,5.15,5.15,0,0,1,1.14.65.36.36,0,0,1,.1.41A25.59,25.59,0,0,1,42.85,72l-1.49,3.06c-.07.13-.14.27-.23.41s-.2.32-.34.54a1.81,1.81,0,0,1-.25.94,1.76,1.76,0,0,1-.66.81,2.23,2.23,0,0,1-.31,1.07,6.45,6.45,0,0,0-.48,1,2.86,2.86,0,0,1-.15.41l-.2.4a.36.36,0,0,0,0,.11.29.29,0,0,1,0,.1c-.2.27-.39.55-.56.83s-.33.57-.48.87a3.73,3.73,0,0,0-.15.38c0,.12-.09.27-.15.45l-.21.45a3.46,3.46,0,0,1-.26.42,3.17,3.17,0,0,1-.31.37,2.21,2.21,0,0,0-.28.32.92.92,0,0,0-.14.14l-.15.15.33.15-1.06,1.81L34.2,89s-.07,0-.08,0,0,0-.09,0a1.85,1.85,0,0,0,0-.23c0-.09,0-.16,0-.25s-.06,0-.11,0a1.63,1.63,0,0,1,0,.32c0,.1,0,.2,0,.32s-.11.39-.15.41a.92.92,0,0,1-.27.08,1.22,1.22,0,0,0-.27.09,1.22,1.22,0,0,1-.06-.4,1.5,1.5,0,0,1,.15-.42.77.77,0,0,0,.08-.38c0-.32.16-.43.42-.34s.49,0,.62-.32C34.38,87.9,34.36,87.84,34.34,87.75ZM36.45,83a.23.23,0,0,1,.11.11l.16-.13a.22.22,0,0,0,.09-.17c0-.11,0-.23,0-.35s0-.26,0-.42l-.09,0s0,0-.08,0a1.63,1.63,0,0,1-.09.45Zm-1.63,4.21a1.05,1.05,0,0,0,.07-.26,1.1,1.1,0,0,1,.08-.27c.2-.4.39-.78.59-1.15s.39-.76.58-1.15a.24.24,0,0,0,0-.17.37.37,0,0,1,0-.19.41.41,0,0,1-.18.1.2.2,0,0,0-.14.12,3.73,3.73,0,0,0-.31.54l-.28.57c-.1.2-.2.39-.3.56s-.2.36-.3.56-.15.33-.22.5-.14.34-.22.51l.09,0A4.35,4.35,0,0,0,34.82,87.19Z"/><path class="cls-3" d="M145.16,168.67c.35-1,.66-1.94,1-2.88s.59-1.91.9-2.9c.09-.27.17-.51.23-.75s.14-.47.23-.75l.65-1.78a15.75,15.75,0,0,0,.56-1.68c.32-1.18,17.57-51.3,18-52.43a14.54,14.54,0,0,0,1-3.41l.14-.41c.21-.61.43-1.21.65-1.78s.43-1.18.61-1.81q.09-.27,0-.36a1.24,1.24,0,0,1-.07-.4c-.13.15-.26.31-.37.46a1.84,1.84,0,0,0-.27.52c-.18.73-.34,1.4-.49,2a6.07,6.07,0,0,1-.86,1.87,2.19,2.19,0,0,0-.23.82q0,.3,0,.6c0,.19,0,.39,0,.58a5.21,5.21,0,0,0-1.42,2.42c-.47,1.28-17.61,51.41-17.7,52.47a1,1,0,0,1-.62.24c-.37,1.37-.67,2.6-.94,3.71a.65.65,0,0,1-.1.19.72.72,0,0,0-.1.18c-.38.87-.73,1.75-1,2.64a16.29,16.29,0,0,0-.71,2.89m-1.62-.11a1.25,1.25,0,0,0,.06-.58c0-.2-.07-.33-.14-.35s-.17,0-.3.2l-.39.46m0-.61c.1-.16.2-.35.31-.56a1.11,1.11,0,0,0,.17-.47,5,5,0,0,1,.37-2,19.12,19.12,0,0,0,.72-2.06c.31-1,.62-1.95.93-2.89a8.79,8.79,0,0,0,.47-2.76c0-.2,17-49.56,17.17-50.18.16-.44.34-.88.52-1.32a6.23,6.23,0,0,0,.42-1.35,12.54,12.54,0,0,1,.59-2.34q.42-1.2.84-2.25c.25-.71.47-1.36.66-1.94s.38-1.24.59-2a.41.41,0,0,1,.36,0,1.84,1.84,0,0,0,.25-.21,1.4,1.4,0,0,1,.25-.22,1.11,1.11,0,0,0,0-.36,2,2,0,0,1,0-.39,5,5,0,0,1,.07-1,6.43,6.43,0,0,0,.28-1,3.15,3.15,0,0,1,.75-2c.12-.45.22-.87.29-1.24a4.26,4.26,0,0,1,.3-.95,23.23,23.23,0,0,0,1.31-3.73,26.26,26.26,0,0,1,1-3c.4-1,.8-1.91,1.21-2.87a15.48,15.48,0,0,1,.74-1.76,11.09,11.09,0,0,0,.68-1.79,6.23,6.23,0,0,1,.68-1.62,11.29,11.29,0,0,1,.86-1.13,2.76,2.76,0,0,1,.39-.38,1.42,1.42,0,0,0,.39-.54c.32-.69.6-1.07.83-1.13a3,3,0,0,1,.71-.13,8.62,8.62,0,0,1,1.35,0,6.71,6.71,0,0,0,1.35,0c.54.1.58.77.11,2-.28.71-.57,1.37-.85,2s-.57,1.32-.85,2c-.54,1.31-1.07,2.65-1.58,4l-1.53,4c-.31.78-.61,1.55-.9,2.3s-.56,1.53-.84,2.33c-.15.44-.32.93-.49,1.47s-.33,1-.48,1.48c-.5,1.53-1,3-1.5,4.35s-1,2.77-1.5,4.19c-.24.7-.51,1.44-.79,2.18s-.55,1.49-.8,2.2L149.3,157.84c-.16.46-.33.93-.54,1.47s-.36,1-.49,1.47c-.3,1-.63,2-1,3.1s-.66,2.12-1,3.11a1.51,1.51,0,0,1-.12.26,1.15,1.15,0,0,0-.12.25c-.25.72-.47,1.38-.67,2"/><path class="cls-3" d="M160,76.22c-.34.13-.45.33-.32.59s0,.39-.35.42a.67.67,0,0,0-.38.09,2.6,2.6,0,0,1-.42.15,1.38,1.38,0,0,1-.39,0,1.34,1.34,0,0,0,.09-.26,1.38,1.38,0,0,1,.08-.27s.16-.09.42-.15l.31,0a1.57,1.57,0,0,1,.32,0s0-.09,0-.1l-.24,0-.24,0a.15.15,0,0,0,0-.09s0,0,0-.08l1.81-1.06,1.8-1,.15.31a.92.92,0,0,1,.15-.14l.14-.14a3,3,0,0,0,.33-.28,2,2,0,0,1,.37-.3,3.46,3.46,0,0,1,.42-.26l.45-.22.44-.14.38-.16q.45-.23.87-.48c.29-.17.56-.35.84-.55a.29.29,0,0,1,.1,0,.2.2,0,0,0,.11,0l.39-.19a3.52,3.52,0,0,1,.42-.15,9,9,0,0,0,1-.48,2.36,2.36,0,0,1,1.06-.33,1.84,1.84,0,0,1,.82-.64,2,2,0,0,1,.94-.27l.54-.33a4.23,4.23,0,0,1,.41-.23l3.06-1.49a27,27,0,0,1,2.52-1.09.36.36,0,0,1,.41.08,4.58,4.58,0,0,1,.61,1.09,2.66,2.66,0,0,1,.29,1.26,4.87,4.87,0,0,1-.11.78c0,.23-.3.44-.72.65s-.91.41-1.32.62a5.74,5.74,0,0,1-1.38.5,16.41,16.41,0,0,0-1.89.68c-.62.28-1.26.54-1.91.79s-1.13.5-1.67.77-1.11.51-1.69.73-1,.38-1.42.54l-1.43.51a12.7,12.7,0,0,0-1.33.53c-.44.19-.9.38-1.38.55a.28.28,0,0,1-.17,0,.24.24,0,0,0-.17,0l-.49.06-.78.14c-.28.06-.54.1-.79.14a2.5,2.5,0,0,0-.47.11.1.1,0,0,0-.09,0,.1.1,0,0,1-.09,0l0-.07a3.83,3.83,0,0,1,.43-.31l.66-.4a5.76,5.76,0,0,0,.66-.4l.44-.3a.15.15,0,0,0-.11-.1l-1.24.73a4.58,4.58,0,0,1-1.38.55.69.69,0,0,1,.1-.24.35.35,0,0,0,.06-.18.5.5,0,0,0,0-.16.33.33,0,0,1,.07-.13A.29.29,0,0,1,160,76.22ZM165.39,74a1.65,1.65,0,0,1,.44-.1s0-.07,0-.08l0-.09-.42,0-.34,0a.22.22,0,0,0-.17.09l-.14.16a.15.15,0,0,1,.11.1Zm-5,2.31,0,.08a4.46,4.46,0,0,1,.5-.22c.17-.07.34-.14.51-.23s.38-.19.55-.29l.56-.3.57-.28a6.26,6.26,0,0,0,.55-.31.29.29,0,0,0,.12-.13.41.41,0,0,1,.1-.18h-.19a.28.28,0,0,0-.17,0c-.39.19-.77.39-1.15.59s-.75.39-1.15.58a1,1,0,0,1-.26.09.86.86,0,0,0-.27.08A3.65,3.65,0,0,0,160.41,76.31Z"/><path class="cls-3" d="M185.59,87.91c.13.34.34.45.62.32s.4,0,.42.34a.77.77,0,0,0,.08.38,1.5,1.5,0,0,1,.15.42,1.22,1.22,0,0,1-.06.4,1.22,1.22,0,0,0-.27-.09.92.92,0,0,1-.27-.08s-.1-.16-.15-.41,0-.22-.05-.32a1.63,1.63,0,0,1,0-.32c-.05,0-.09,0-.11,0s0,.16,0,.25a1.85,1.85,0,0,0,0,.23s-.07,0-.09,0,0,0-.08,0l-1.07-1.8-1.06-1.81.33-.15-.15-.15a.92.92,0,0,0-.14-.14,2.21,2.21,0,0,0-.28-.32,3.17,3.17,0,0,1-.31-.37,3.46,3.46,0,0,1-.26-.42l-.21-.45c-.06-.18-.1-.33-.15-.45a3.73,3.73,0,0,0-.15-.38q-.22-.45-.48-.87c-.17-.28-.36-.56-.56-.83a.29.29,0,0,1,0-.1.36.36,0,0,0,0-.11l-.2-.4a2.86,2.86,0,0,1-.15-.41,6.45,6.45,0,0,0-.48-1,2.23,2.23,0,0,1-.31-1.07,1.76,1.76,0,0,1-.66-.81,1.81,1.81,0,0,1-.25-.94c-.14-.22-.26-.4-.34-.54s-.16-.28-.23-.41L177.15,72a25.59,25.59,0,0,1-1.08-2.53.36.36,0,0,1,.1-.41,5.15,5.15,0,0,1,1.14-.65,2.94,2.94,0,0,1,1.33-.32,4.56,4.56,0,0,1,.82.09q.34.08.66.72c.2.47.4.91.62,1.31a5.55,5.55,0,0,1,.49,1.39,15.35,15.35,0,0,0,.67,1.9c.27.62.53,1.26.78,1.91s.5,1.13.77,1.67.5,1.11.72,1.7.38,1,.54,1.41l.49,1.44c.15.46.33.9.52,1.34s.38.9.55,1.38a.28.28,0,0,1,0,.17.29.29,0,0,0,0,.17,4,4,0,0,0,.06.49c0,.25.08.51.13.79s.09.55.13.8a2,2,0,0,0,.1.47.1.1,0,0,0,0,.09.1.1,0,0,1,0,.09l-.09,0c-.07-.09-.18-.23-.31-.43s-.26-.42-.4-.66a7.65,7.65,0,0,0-.4-.66,3.07,3.07,0,0,0-.31-.43.14.14,0,0,0-.1.11c.24.41.48.82.73,1.23a4.69,4.69,0,0,1,.55,1.38.65.65,0,0,1-.26-.09.35.35,0,0,0-.18-.06.54.54,0,0,0-.17,0,.27.27,0,0,1-.14-.06C185.64,87.84,185.62,87.9,185.59,87.91Zm-2.2-5.4a1.63,1.63,0,0,1-.09-.45s-.07,0-.08,0l-.09,0c0,.16,0,.3,0,.42s0,.24,0,.35a.22.22,0,0,0,.09.17l.16.13a.23.23,0,0,1,.11-.11Zm2.3,5,.09,0c-.08-.17-.16-.34-.22-.51s-.14-.34-.22-.5-.2-.39-.3-.56-.2-.36-.3-.56l-.28-.57a3.73,3.73,0,0,0-.31-.54.2.2,0,0,0-.14-.12.41.41,0,0,1-.18-.1.37.37,0,0,1,0,.19.24.24,0,0,0,0,.17c.19.39.38.78.58,1.15s.39.75.59,1.15a1.1,1.1,0,0,1,.08.27,1.05,1.05,0,0,0,.07.26A4.35,4.35,0,0,0,185.69,87.5Z"/><path class="cls-4" d="M111.86,157.84c0-1,0-2.05,0-3s-.06-2-.09-3c0-.29,0-.54,0-.78s0-.49,0-.78c0-.66,0-1.29,0-1.9s0-1.21,0-1.77c-.08-1.22-.07-54.22,0-55.44a14.77,14.77,0,0,0-.21-3.54v-.43c0-.65,0-1.29,0-1.9s0-1.25,0-1.91c0-.19,0-.31-.08-.35a1,1,0,0,1-.2-.36c-.07.19-.14.38-.2.56a2,2,0,0,0-.09.58c.07.74.14,1.43.19,2a6.35,6.35,0,0,1-.21,2,2.46,2.46,0,0,0,0,.85,5.49,5.49,0,0,1,.2.57c0,.18.1.38.14.56a5.21,5.21,0,0,0-.56,2.76c0,1.35.07,54.33.33,55.37a1,1,0,0,1-.51.42c.1,1.42.21,2.68.32,3.82a.55.55,0,0,1,0,.21.55.55,0,0,0,0,.21c-.08.94-.13,1.88-.13,2.83a15.44,15.44,0,0,0,.27,3m-1.57.42a1.27,1.27,0,0,0-.13-.56c-.09-.19-.18-.29-.25-.29s-.14.1-.22.28-.14.38-.22.57m-.21-.57.11-.63a1,1,0,0,0,0-.5,5,5,0,0,1-.31-2.06c0-.7,0-1.42,0-2.18,0-1-.05-2.05-.07-3a9.07,9.07,0,0,0-.44-2.76c-.07-.18-.09-52.38-.09-53,0-.47,0-.94.07-1.41a6.16,6.16,0,0,0-.05-1.42,12.34,12.34,0,0,1-.2-2.4c0-.85,0-1.64.06-2.4s0-1.44,0-2.05,0-1.3-.07-2a.4.4,0,0,1,.33-.15,1.28,1.28,0,0,0,.16-.27,1.4,1.4,0,0,1,.16-.29.8.8,0,0,0-.1-.34,2.3,2.3,0,0,1-.16-.36,4.38,4.38,0,0,1-.27-1,5.73,5.73,0,0,0,0-1,3.23,3.23,0,0,1,.07-2.13c0-.46-.08-.88-.13-1.26a3.34,3.34,0,0,1,0-1,24.93,24.93,0,0,0,0-4,24.82,24.82,0,0,1,0-3.11c.06-1,.13-2.07.21-3.11a15,15,0,0,1,.12-1.91,10.9,10.9,0,0,0,.06-1.91,6.27,6.27,0,0,1,.12-1.75,12.41,12.41,0,0,1,.44-1.35,3.72,3.72,0,0,1,.25-.49,1.67,1.67,0,0,0,.2-.63c.07-.76.21-1.21.41-1.35a3.88,3.88,0,0,1,.63-.35,9.08,9.08,0,0,1,1.28-.42,6.86,6.86,0,0,0,1.29-.41c.54-.09.79.53.75,1.84,0,.76-.09,1.48-.15,2.2s-.11,1.43-.15,2.18c-.08,1.41-.14,2.85-.19,4.31s-.08,2.9-.13,4.31c0,.84-.07,1.67-.09,2.47s0,1.63,0,2.48c0,.47,0,1,0,1.55s0,1.08,0,1.55c0,1.61,0,3.14,0,4.6s0,3,0,4.45c0,.75,0,1.53,0,2.33s0,1.58,0,2.33l0,55.87c0,.48,0,1,0,1.56s0,1.08,0,1.55c0,1,.06,2.12.09,3.25s.06,2.22.09,3.25a1.43,1.43,0,0,1,0,.29,2.48,2.48,0,0,0,0,.27c0,.76,0,1.46,0,2.12"/><path class="cls-4" d="M95.81,65.58c-.27.24-.31.46-.11.67s.1.38-.19.5a.84.84,0,0,0-.33.21,2.2,2.2,0,0,1-.34.28,1.6,1.6,0,0,1-.39.08,1.22,1.22,0,0,0,0-.27.88.88,0,0,1,0-.28s.12-.14.34-.28l.28-.15a1.7,1.7,0,0,1,.3-.12s0-.08,0-.1l-.22.09-.21.1s0-.08,0-.09,0,0,0-.09l1.37-1.58L97.63,63l.23.24L98,63a.87.87,0,0,0,.09-.17c.09-.13.15-.25.22-.37a2.83,2.83,0,0,1,.25-.41,3.19,3.19,0,0,1,.32-.38l.35-.35.37-.28a3.92,3.92,0,0,0,.31-.28c.23-.23.46-.48.67-.73s.41-.52.6-.79a.21.21,0,0,1,.1-.06l.09-.07.31-.31a2.24,2.24,0,0,1,.34-.27,7.18,7.18,0,0,0,.78-.78,2.51,2.51,0,0,1,.9-.66A2.55,2.55,0,0,1,105,55.69l.41-.5a3.39,3.39,0,0,1,.31-.34l2.41-2.41a26.36,26.36,0,0,1,2-1.85.37.37,0,0,1,.41-.06,4.63,4.63,0,0,1,.94.83,2.78,2.78,0,0,1,.68,1.1,4.41,4.41,0,0,1,.15.78,1.23,1.23,0,0,1-.47.84c-.39.34-.73.68-1,1a5.65,5.65,0,0,1-1.14.92,16.66,16.66,0,0,0-1.57,1.26c-.5.46-1,.91-1.55,1.36s-.9.85-1.33,1.28a17.94,17.94,0,0,1-1.36,1.23c-.38.35-.77.67-1.16,1l-1.19.94c-.38.3-.74.61-1.09.94s-.72.65-1.12,1c-.06,0-.1.08-.15.08a.3.3,0,0,0-.15.09c-.07,0-.22.1-.44.22l-.7.39-.69.39a2.47,2.47,0,0,0-.41.25.12.12,0,0,0-.09,0,.12.12,0,0,1-.09,0l-.06-.07c.06-.09.16-.24.31-.43s.31-.38.49-.59.35-.4.5-.59a4.46,4.46,0,0,0,.31-.43.16.16,0,0,0-.14,0l-.93,1.08a4.64,4.64,0,0,1-1.12,1,.69.69,0,0,1,0-.26.31.31,0,0,0,0-.19.39.39,0,0,0,0-.17.35.35,0,0,1,0-.14A.24.24,0,0,1,95.81,65.58Zm4.38-3.85a1.58,1.58,0,0,1,.39-.24.09.09,0,0,0,0-.08s0,0,0-.09l-.38.17a1.48,1.48,0,0,0-.31.15.22.22,0,0,0-.14.14l-.07.2s.08,0,.13.05Zm-4,3.8.06.07.41-.38.4-.37c.16-.16.3-.31.43-.46s.28-.31.43-.46l.45-.45a5.15,5.15,0,0,0,.42-.48.23.23,0,0,0,.07-.16.4.4,0,0,1,0-.2l-.18.06a.2.2,0,0,0-.15.09c-.31.31-.61.61-.9.92s-.58.62-.89.93a1.72,1.72,0,0,1-.23.17,1,1,0,0,0-.22.16A4.1,4.1,0,0,0,96.23,65.53Z"/><path class="cls-4" d="M123.82,68.32c.23.28.46.31.68.09s.39-.11.51.19a.74.74,0,0,0,.21.33,2.39,2.39,0,0,1,.28.35,1.62,1.62,0,0,1,.07.4.94.94,0,0,0-.29,0,1.31,1.31,0,0,1-.28,0s-.14-.12-.28-.34-.1-.2-.15-.28a2.24,2.24,0,0,1-.11-.31s-.08,0-.11,0a1.47,1.47,0,0,0,.1.22,1.43,1.43,0,0,0,.08.22h-.09s0,0-.08,0l-1.59-1.36-1.59-1.36.25-.25-.18-.09-.18-.1a2.72,2.72,0,0,0-.37-.2,3.23,3.23,0,0,1-.41-.25,4.8,4.8,0,0,1-.39-.32l-.35-.35-.28-.38-.27-.31c-.23-.23-.48-.45-.73-.66s-.52-.41-.8-.6a.21.21,0,0,1-.06-.1.7.7,0,0,0-.06-.09l-.31-.31a1.87,1.87,0,0,1-.28-.35,7.09,7.09,0,0,0-.78-.77,2.31,2.31,0,0,1-.64-.91,1.78,1.78,0,0,1-.88-.55,1.81,1.81,0,0,1-.55-.81l-.5-.4-.35-.32L110.66,56a22.9,22.9,0,0,1-1.84-2,.35.35,0,0,1,0-.42,5.76,5.76,0,0,1,.87-1,3.16,3.16,0,0,1,1.16-.73,5.17,5.17,0,0,1,.8-.18c.24,0,.52.13.86.46s.68.74,1,1a5.46,5.46,0,0,1,.92,1.15,14.2,14.2,0,0,0,1.25,1.58c.46.5.91,1,1.36,1.55s.84.91,1.27,1.34.83.88,1.23,1.36.66.78,1,1.17l.93,1.2c.3.38.61.74.93,1.09s.65.72,1,1.13a.22.22,0,0,1,.08.15.3.3,0,0,0,.09.15,4.43,4.43,0,0,0,.21.44c.12.23.24.46.38.71s.27.48.38.71a1.91,1.91,0,0,0,.25.41s0,.07,0,.09,0,.05,0,.09l-.07.07a4.46,4.46,0,0,1-.43-.31c-.19-.14-.39-.31-.59-.49s-.41-.35-.6-.49a3.48,3.48,0,0,0-.43-.31.22.22,0,0,0-.06.14c.36.31.72.63,1.09.93a4.48,4.48,0,0,1,1,1.13.74.74,0,0,1-.27,0h-.19a.54.54,0,0,0-.18,0,.26.26,0,0,1-.14,0C123.84,68.24,123.84,68.3,123.82,68.32ZM120,63.92a1.49,1.49,0,0,1-.23-.39h-.18c.07.15.12.28.16.39l.15.31a.24.24,0,0,0,.14.14l.2.07a.22.22,0,0,1,.06-.14Zm3.8,4,.07-.07c-.13-.13-.26-.26-.38-.4a4.72,4.72,0,0,0-.37-.41l-.46-.43c-.15-.13-.31-.27-.46-.42l-.45-.45a4,4,0,0,0-.48-.42.18.18,0,0,0-.16-.06.51.51,0,0,1-.2,0,1,1,0,0,1,0,.18.22.22,0,0,0,.08.15q.47.47.93.9c.31.29.62.58.93.89a1.77,1.77,0,0,1,.16.23,1.27,1.27,0,0,0,.16.23A3,3,0,0,0,123.78,67.89Z"/></g></g></g></svg>
