<?xml version="1.0" encoding="utf-8"?>
<!-- Generator: Adobe Illustrator 26.2.1, SVG Export Plug-In . SVG Version: 6.00 Build 0)  -->
<svg version="1.1" id="Calque_1" xmlns="http://www.w3.org/2000/svg" xmlns:xlink="http://www.w3.org/1999/xlink" x="0px" y="0px"
	 viewBox="0 0 185.3 39" style="enable-background:new 0 0 185.3 39;" xml:space="preserve">
<style type="text/css">
	.st0{fill:none;stroke:#00DDFF;stroke-width:2;stroke-linecap:round;stroke-linejoin:round;}
	.st1{fill:none;stroke:#2753A0;stroke-width:2;stroke-linecap:round;stroke-linejoin:round;}
	.st2{fill:none;stroke:#E53429;stroke-width:2;stroke-linecap:round;stroke-linejoin:round;}
	.st3{fill:none;stroke:#2753A0;stroke-width:2;stroke-linecap:round;stroke-linejoin:bevel;}
</style>
<g id="Calque_2_00000153688750082710578730000004046540040890697394_">
	<g id="Calque_1-2">
		<g id="tir">
			<polyline class="st0" points="5.4,19.9 2.8,13.4 28.3,13.4 			"/>
			<path class="st1" d="M24.9,23.3c0,0-1,12.3,10.5,12.3"/>
			<polyline class="st2" points="47.8,35.6 5.4,35.6 1,38 1,20.3 28.3,20.3 			"/>
			<rect x="177.1" y="8.4" class="st2" width="7.1" height="4.1"/>
			<polyline class="st0" points="136.6,16.8 136.6,24.9 131.7,24.9 131.7,16.8 			"/>
			<polyline class="st0" points="131.7,16.8 131.7,24.9 69.9,24.9 			"/>
			<polyline class="st1" points="184.3,12.5 184.3,16.8 55.7,16.8 			"/>
			<line class="st1" x1="45.7" y1="16.8" x2="47.9" y2="12.5"/>
			<path class="st1" d="M47.9,12.5c13.6,0.7,136.4,0,136.4,0"/>
			<polyline class="st1" points="57.4,5 57.4,1 61.1,1 61.1,5 71.7,12.8 			"/>
			<line class="st1" x1="61.1" y1="12.7" x2="57.4" y2="9"/>
			<line class="st1" x1="131.7" y1="16.8" x2="135.2" y2="16.8"/>
			<path class="st1" d="M28.3,16.8H32V23c0,0-0.6,5,3.5,5c2,0.1,3.7-1.4,3.8-3.4c0.2-1.4,0.7-2.8,1.5-4c1.2-2,3-3.8,4.9-3.8h24.2
				v12.5H53.3l-3.4-6.3H48l-0.2,12.6"/>
			<line class="st1" x1="57.4" y1="4.9" x2="61.1" y2="4.9"/>
			<line class="st1" x1="151.5" y1="12.8" x2="151.5" y2="16.8"/>
			<line class="st1" x1="153.5" y1="8.4" x2="149.5" y2="8.4"/>
			<path class="st3" d="M65.8,22.9L65.8,22.9c0,1.5-1.2,2.7-2.7,2.7l0,0h-6c-1.4,0-2.6-1.2-2.6-2.7l0,0c0-1.5,1.2-2.7,2.7-2.7l0,0"
				/>
			<line class="st2" x1="5.4" y1="35.6" x2="5.4" y2="23.3"/>
			<path class="st2" d="M63.2,20.3c1.5,0,2.7,1.2,2.7,2.7l0,0"/>
			<line class="st2" x1="57.2" y1="20.3" x2="63.2" y2="20.3"/>
			<line class="st2" x1="58.1" y1="20.4" x2="59.3" y2="22.9"/>
			<polyline class="st2" points="61.1,5 53.3,5 53.3,9 57.4,9 			"/>
			<line class="st1" x1="5.4" y1="23.3" x2="24.9" y2="23.3"/>
		</g>
	</g>
</g>
</svg>
