<?xml version="1.0" encoding="utf-8"?>
<!-- Generator: Adobe Illustrator 26.2.1, SVG Export Plug-In . SVG Version: 6.00 Build 0)  -->
<svg version="1.1" id="Calque_1" xmlns="http://www.w3.org/2000/svg" xmlns:xlink="http://www.w3.org/1999/xlink" x="0px" y="0px"
	 viewBox="0 0 62 61.4" style="enable-background:new 0 0 62 61.4;" xml:space="preserve">
<style type="text/css">
	.st0{fill:none;stroke:#00DDFF;stroke-width:1.5;stroke-linecap:round;stroke-linejoin:round;}
	.st1{fill:none;stroke:#E53429;stroke-width:1.5;stroke-linecap:round;stroke-linejoin:round;}
	.st2{fill:none;stroke:#2753A0;stroke-width:1.5;stroke-linecap:round;stroke-linejoin:round;}
</style>
<g id="Calque_2_00000062163320712669787970000002312199941670928319_">
	<g id="Calque_1-2">
		<g id="vitesse">
			<path class="st0" d="M42.5,36.5l3.3,2.5c0.8,0.9,0.8,2.3,0,3.2L30.6,57.5c-0.3,0.3-0.7,0.5-1.1,0.5l0,0c-0.8,0-1.5-0.7-1.5-1.5
				c0-0.3,0.1-0.5,0.2-0.7L38,42"/>
			<polyline class="st1" points="27.6,37.1 35,41.2 40.9,33 34.7,29.8 			"/>
			<line class="st1" x1="33.1" y1="5.9" x2="32.9" y2="10.8"/>
			<line class="st0" x1="30" y1="7.4" x2="22.3" y2="15.9"/>
			<path class="st1" d="M41.8,6C36.7,5.6,32.3,5,30,7.4"/>
			<path class="st0" d="M22.3,15.9c-0.8,0.8-0.7,2.1,0.1,2.8c0.1,0.1,0.1,0.1,0.2,0.2l0,0c0.9,0.4,2,0.2,2.6-0.6l7.7-7.5l2.4,0.8"/>
			<path class="st0" d="M12.4,42.4C11.2,43.8,1.1,58.1,1.1,58.1c-0.6,0.7-0.5,1.7,0.2,2.3c0.2,0.1,0.4,0.3,0.6,0.3l0,0
				c0.7,0.1,1.4-0.1,1.9-0.7l14.1-15.6"/>
			<polyline class="st1" points="34.7,29.8 25.7,25.3 36.5,9.9 			"/>
			<polyline class="st1" points="16.2,36.3 13.9,39.1 22,41.6 30,32.8 			"/>
			<line class="st0" x1="51.9" y1="15.5" x2="58.9" y2="12.9"/>
			<path class="st0" d="M58.9,12.9c0.8-0.4,1.9,0,2.3,0.8c0,0,0,0,0,0.1l0,0c0.4,1.2-0.2,2.5-1.3,3l-7,3"/>
			<line class="st2" x1="24.2" y1="28.9" x2="18.4" y2="28.9"/>
			<line class="st2" x1="4.2" y1="32.2" x2="2.5" y2="32.2"/>
			<line class="st2" x1="22.4" y1="32.2" x2="9" y2="32.2"/>
			<line class="st2" x1="26.1" y1="5.4" x2="12.1" y2="5.4"/>
			<line class="st2" x1="22.7" y1="2.2" x2="20.8" y2="2.2"/>
			<line class="st2" x1="39.6" y1="2.2" x2="26.6" y2="2.2"/>
			<line class="st2" x1="44.7" y1="25.2" x2="36.2" y2="25.2"/>
			<line class="st2" x1="40.9" y1="21.9" x2="37.7" y2="21.9"/>
			<path class="st1" d="M55.7,5.3c-0.1-2.6-2.2-4.6-4.8-4.5c-2.6,0.1-4.6,2.2-4.5,4.8c0.1,2.6,2.2,4.6,4.8,4.5c0,0,0,0,0,0"/>
			<path class="st2" d="M51.2,10.1c2.6-0.1,4.6-2.2,4.5-4.8c0,0,0,0,0,0"/>
			<path class="st1" d="M45.7,11.1c0,3.4,2.5,5.6,6.2,4.4l1,4.2c-4.2,1.7-8.4,0.9-11-2"/>
			<line class="st1" x1="35.1" y1="29.7" x2="36.5" y2="28.1"/>
		</g>
	</g>
</g>
</svg>
