<?xml version="1.0" encoding="utf-8"?>
<!-- Generator: Adobe Illustrator 26.2.1, SVG Export Plug-In . SVG Version: 6.00 Build 0)  -->
<svg version="1.1" id="Calque_1" xmlns="http://www.w3.org/2000/svg" xmlns:xlink="http://www.w3.org/1999/xlink" x="0px" y="0px"
	 viewBox="0 0 99.11 67.33" style="enable-background:new 0 0 99.11 67.33;" xml:space="preserve">
<style type="text/css">
	.st0{fill:#FFFFFF;}
</style>
<g>
	<g>
		<path class="st0" d="M31.27,10.61H35l-2.36,15.31h3.25l2.36-15.31h3.73l-5.49,35.73h-3.73l2.36-15.31h-3.25l-2.36,15.31h-3.73
			L31.27,10.61z"/>
		<path class="st0" d="M52.24,33.67l-0.74,12.67h-3.77l0.43-7.58h-3.8l-1.9,7.58h-3.75l3.15-12.62l6.19-23.11h5.11L52.24,33.67z
			 M48.48,33.67l0.86-14.86l-3.7,14.86H48.48z"/>
		<path class="st0" d="M59.23,10.61h3.73l0.34,20.72l3.19-20.72h3.45l-5.49,35.73h-3.73l-0.32-20.07l-3.08,20.07h-3.58L59.23,10.61z
			"/>
		<path class="st0" d="M73.36,10.61h5.74c2.69,0.01,4.03,1.66,4.03,4.95c0,0.76-0.07,1.62-0.22,2.57l-3.17,20.7
			c-0.77,4.99-2.89,7.49-6.36,7.5h-5.5L73.36,10.61z M76.31,15.69l-3.94,25.57h1.63c1.08,0,1.75-0.81,2-2.42l3.17-20.7
			c0.05-0.32,0.08-0.59,0.08-0.84c0-1.07-0.44-1.6-1.32-1.6H76.31z"/>
		<path class="st0" d="M87.29,10.61h3.73l-5.49,35.73H81.8L87.29,10.61z"/>
		<path class="st0" d="M94.5,10.59h4.61l-0.8,5.24l-2.42,6.63h-2.42l1.67-5.95h-1.54L94.5,10.59z"/>
	</g>
	<g>
		<g>
			<path class="st0" d="M41.76,57.35h-5.5c-0.13,0.27-0.25,0.58-0.37,0.91c-0.12,0.34-0.49,1.24-0.3,1.57
				c0.05,0.09,0.14,0.15,0.23,0.22c0.66,0.44,1.26,0.81,2.06,0.96c0.37,0.06,0.69,0.06,0.97,0.06c0.05-0.12,0.09-0.23,0.13-0.34
				c-0.11,0.31,2.61,1.22,2.85,1.3c0.98,0.36,2.05,0.84,3.07,0.7V60C43.68,59.44,42.48,58.49,41.76,57.35z"/>
			<path class="st0" d="M36.81,54.96h2.97c-0.29-0.77-0.62-1.71-0.93-2.79c-0.17-0.63-0.4-1.39-0.61-2.4
				c-0.28-1.34-0.43-2.7-0.57-4.06c-0.07-0.68-0.13-1.36-0.21-2.04c-0.03-0.29-0.31-1.23-0.2-1.51c0.16-0.43,0.38-1.16,0.19-2.01
				c-0.57-2.62-3.72-4.66-5.63-6.31c-2.13-1.84-4.2-3.5-5.22-4.3c0.24-0.48,0.56-1.22,0.75-2.16c0.05-0.21,0.08-0.41,0.21-1.69
				c0.1-0.9,0.2-2.04,0.26-3.44c0.05-0.95,0.04-1.29-0.06-1.69c-0.03-0.15-0.1-0.45-0.16-0.86c-0.09-0.63-0.03-0.86,0.01-0.99
				c0.1-0.29,0.29-0.49,0.42-0.6c1.56,1.01,2.95,2.41,4.84,2.8c0.54,0.1,1.02-1.06,1.1-1.46c0.22-1.09,0.8-2.04,1.16-3.09
				c0.34-1,0.39-2.07,0.68-3.1c0.15-0.49,0.27-0.89,0.36-1.14c0-0.13,0-0.3,0.03-0.5c0.05-0.36,0.15-0.61,0.22-0.79
				c0.1-0.3,0.25-0.72,0.45-1.31c0.01-0.36,0.02-0.61,0.03-0.78c0.01-0.22,0.01-0.36-0.08-0.47c-0.09-0.1-0.22-0.12-0.3-0.13
				c0.08-0.2,0.03-0.41-0.09-0.52c-0.11-0.09-0.24-0.09-0.29-0.08c0.25-0.01-0.59-0.49-0.63-0.49c-0.64-0.17-1.55-0.1-1.61,0.67
				c-0.06,1.05,0.1,2.03,0.1,3.03c0.09,0.21,0.2,0.37,0.29,0.48c0.01,1.84-0.68,3.53-1.55,5.12c-0.22,0.4-0.43,0.73-0.58,0.96
				c-0.22-0.22-0.56-0.56-1.02-0.93c-1.34-1.09-2.53-1.97-3.7-3.24c-0.54-0.58-1.1-0.74-1.83-1.02c-0.33-0.14-0.57-0.32-0.72-0.45
				c-0.04-0.17-0.1-0.5,0-0.9c0.08-0.31,0.22-0.54,0.32-0.67c0.76,0.37,1.23,0.2,1.35,0.14c0.39-0.17,0.63-0.58,1.09-1.38
				c0.13-0.24,0.24-0.44,0.3-0.57c0.04,0.01,0.22,0.04,0.39-0.08c0.1-0.06,0.15-0.15,0.17-0.19c-0.08-0.2-0.16-0.45-0.19-0.77
				c-0.01-0.18-0.01-0.34,0-0.47c0.16-0.19,0.31-0.37,0.47-0.56c0.1-0.22,0.2-0.52,0.25-0.9c0.3-2.17-1.16-3.78-3.26-3.96
				c-0.56-0.05-1.13-0.01-1.65,0.22c-0.22,0.1-0.51,0.4-0.73,0.43c-0.2,0.03-0.58-0.16-0.75-0.24c-0.61-0.29-0.65-0.65-1.16-1.09
				c-1.5-1.28-3.35-0.64-4.13,1.06c0.38-0.14,0.69-0.11,0.77,0.03c0.29,0.52-1.14,1.01-1.39,0.63c0.1,0.15,0.51,0.73,1.24,0.84
				c0.23,0.04,0.43,0.02,0.59-0.01c-0.15,0.43-0.31,0.88-0.52,1.35c-0.15,0.35-0.31,0.68-0.46,0.98c0.08-0.01,0.63-0.13,0.84-0.6
				c-0.05,0.26-0.1,0.56-0.11,0.9c-0.03,0.96,0.19,1.74,0.38,2.23c-0.05-0.21-0.21-1.01,0.26-1.67c0.11-0.16,0.24-0.29,0.36-0.38
				c-0.01,0.13-0.02,0.9,0.54,1.38c0.17,0.14,0.33,0.22,0.47,0.27c-0.13-0.35-0.35-1.1-0.19-2.04c0.19-1.15,0.84-1.88,1.09-2.13
				C21.26,3.68,21.26,4,21.27,4.4c0.03,1.36,0.08,1.71-0.11,2.19c-0.08,0.22-0.24,0.52-0.58,0.84c0.17,0,0.45-0.04,0.69-0.2
				c0.32-0.22,0.39-0.59,0.59-0.89c0.08,0.03,0.1,0.1,0.13,0.18c0.37,0.84,0.29,1.76-0.45,2.38c-0.29,0.25-0.6,0.36-0.78,0.41
				c-0.24-0.11-0.64-0.26-1.15-0.29C19.43,9,18.85,8.98,18.16,9.23c-1.43,0.56-2.5,2.27-2.98,3.65c-1.81,2.23-3.84,4.77-4.28,7.7
				c-0.29,1.95,0.36,3.96-0.03,5.88c-0.06,0.26-0.1,0.42-0.16,0.61c-0.14,0.51-0.28,1.28-0.27,2.32c0.05,0.15,0.17,0.38,0.38,0.62
				c0.22,0.22,0.45,0.35,0.59,0.42c0.15,0.08,0.61,0.28,1.13,0.13c0.14-0.04,0.25-0.1,0.34-0.17c0.06,0.08,0.12,0.15,0.18,0.23
				c0.23-0.27,0.47-0.54,0.69-0.82c-0.06-0.43-0.13-0.86-0.19-1.28c-0.24-0.26-0.59-0.69-0.84-1.31c-0.04-0.12-0.17-0.44-0.25-0.89
				c-0.04-0.26-0.18-1.14,0.28-3.16c0.26-1.14,0.4-2.36,0.76-3.49c0.15-0.51,0.36-0.91,0.5-1.14c1.44-1.26,2.55-2.96,4.21-3.96
				c1.04,1.88,1.57,3.42,1.88,4.49c0.12,0.45,0.1,0.46,0.27,1.06c0.45,1.6,1.24,3.28,0.65,4.94c-0.38,0.31-3.35,2.92-2.85,6.25
				c0.08,0.5,0.25,1.14,0.65,1.84c-1.73,4.08-2.39,6.05-2.6,7.03c-0.02,0.1-0.06,0.29-0.15,0.55c-0.1,0.3-0.26,0.68-0.52,1.07
				c-0.42,0.61-0.91,0.98-1.25,1.2c-0.68,0.43-1.51,0.65-2.28,0.97c0.46,0.22,0.86,0.57,1.14,1.04c0.48,0.83,0.45,1.89-0.01,2.7
				c0.24-0.1,0.48-0.21,0.71-0.33c0.93-0.45,1.64-0.89,2.04-1.15c0.44,0.01,1.82-0.01,2.83-1c0.22-0.22,0.39-0.45,0.52-0.67
				c0.63-0.88,1.29-1.82,1.94-2.84c0.51-0.79,1.02-1.63,1.52-2.52c0.63-1.12,1.21-2.22,1.71-3.28c1.05,0.77,1.92,1.36,2.52,1.75
				c1.21,0.79,2.45,1.53,3.66,2.3c0.48,0.31,2.7,1.46,2.59,2.24c-0.02,0.18-0.06,0.45-0.08,0.78c-0.14,2.75,1.22,5.36,2.14,7.88
				c0.43,1.16,0.75,2.56,1.36,3.65C36.65,54.61,36.73,54.75,36.81,54.96z M21.96,4.01c-0.04,0.1-0.09,0.19-0.13,0.26
				c-0.05-0.26-0.08-0.52,0-0.92c0.06-0.3,0.14-0.8,0.43-0.86c0.15-0.03,0.36,0.08,0.53,0.28C22.35,3.32,22.09,3.78,21.96,4.01z"/>
		</g>
		<g>
			<path class="st0" d="M3.07,52.45c0,0-2.32,5.78,0.78,10.4s-1.3,4.57-2.17,3.89c-0.87-0.68-2.29-3.85-1.2-6.41
				C1.46,55.48,3.07,52.45,3.07,52.45z"/>
			<path class="st0" d="M6.04,47.13c0,0,4.59-3.95,6.41-3.54s1.93,2.45,1.51,3.86c0,0-0.32,0.63-1.25,1.12l-4.06,0.89
				c0,0-1.29,0.57-1.55,0.55C6.84,50,6.93,49.78,6.93,49.78S6.92,48.65,6.04,47.13z"/>
			<g>
				<path class="st0" d="M6.93,49.78c-0.1-0.96-0.47-1.92-1.12-2.63c0.42-0.4,0.86-0.78,1.31-1.14c1.39-1.11,5.64-4.16,6.83-1.58
					c0.23,0.5,0.3,1.03,0.28,1.54c-0.02,0.51-0.12,1.01-0.27,1.48c0.02-0.25,0.03-0.5,0.04-0.74c0-0.89-0.16-2.13-0.99-2.6
					c-1.16-0.44-3.3,0.94-4.31,1.56c-0.82,0.53-1.64,1.09-2.42,1.67l0.03-0.31C6.83,47.84,7.07,48.83,6.93,49.78L6.93,49.78z"/>
				<path class="st0" d="M8.66,49.46c-2.9,0.92-5.72,3.05-6.05,6.24c-0.3,2.78,0.85,5.47,2.12,7.89c0.16,0.3,0.33,0.61,0.44,0.95
					c0.4,1.15-0.1,2.61-1.44,2.75c-0.71,0.12-1.5-0.09-2.05-0.55C0.22,65.54-0.25,63,0.12,61.23c0.07-0.32,0.18-0.63,0.36-0.89
					c-0.28,0.58-0.3,1.23-0.27,1.86c0.11,1.59,0.85,4.01,2.57,4.42c0.46,0.09,1.12,0.03,1.41-0.36c0.28-0.38,0.28-0.95,0.1-1.41
					c-0.1-0.26-0.27-0.53-0.41-0.77c-0.17-0.28-0.32-0.57-0.48-0.85c-1.54-2.86-2.68-6.5-1.15-9.61C3.43,51.2,6.06,49.77,8.66,49.46
					L8.66,49.46z"/>
				<path class="st0" d="M10.95,49.02c-0.2-0.7-0.48-1.38-0.78-1.95c0.2,0.65,0.41,1.32,0.59,2L10.95,49.02z"/>
				<path class="st0" d="M11.79,48.8c-0.2-0.73-0.49-1.44-0.81-2.03c0.2,0.68,0.43,1.38,0.62,2.08L11.79,48.8z"/>
				<path class="st0" d="M12.72,48.57c-0.2-0.74-0.5-1.46-0.82-2.07c0.21,0.69,0.44,1.4,0.63,2.11L12.72,48.57z"/>
			</g>
		</g>
	</g>
	<g>
		<path class="st0" d="M31.57,58.46c-0.27,1.49-1.03,2.31-2.27,2.46v0.01c0,0.25,0.58,0.38,1.75,0.38l-0.26,1.43
			c-0.98,0-1.64-0.1-1.97-0.29c-0.33-0.2-0.5-0.54-0.5-1.04c0-0.15,0.01-0.3,0.04-0.47c-1.09-0.08-1.63-0.66-1.63-1.72
			c0-0.23,0.03-0.48,0.08-0.76l1.32-7.26c0.3-1.66,1.24-2.49,2.83-2.49c1.34,0,2,0.59,2,1.76c0,0.22-0.02,0.47-0.07,0.73
			L31.57,58.46z M31.23,51.2c0.02-0.09,0.02-0.17,0.02-0.25c0-0.36-0.2-0.55-0.6-0.55h-0.01c-0.48,0-0.76,0.27-0.86,0.8l-1.32,7.26
			c-0.02,0.1-0.03,0.18-0.03,0.26c0,0.36,0.2,0.55,0.6,0.55c0.48,0,0.78-0.27,0.88-0.81L31.23,51.2z"/>
		<path class="st0" d="M37.72,58.22c-0.3,1.66-1.25,2.49-2.84,2.5c-1.33,0-2-0.59-2-1.76c0-0.22,0.03-0.47,0.08-0.74l1.74-9.57h1.66
			l-1.74,9.57c-0.02,0.09-0.02,0.17-0.02,0.25c0,0.37,0.2,0.55,0.6,0.55c0.48,0,0.78-0.27,0.87-0.8l1.74-9.57h1.66L37.72,58.22z"/>
		<path class="st0" d="M40.96,48.64h1.66L40.45,60.5H38.8L40.96,48.64z"/>
		<path class="st0" d="M44.17,48.64h2.41c1.22,0,1.83,0.57,1.83,1.72c0,0.23-0.03,0.49-0.08,0.78l-0.32,1.78
			c-0.22,1.23-0.9,2.02-2.02,2.37c-0.27,0.09-0.65,0.13-1.13,0.13h-0.27l-0.93,5.08h-1.66L44.17,48.64z M45.52,50.32l-0.62,3.4h0.38
			c0.23,0,0.39-0.02,0.48-0.05c0.32-0.12,0.52-0.38,0.59-0.76l0.32-1.78c0.02-0.09,0.02-0.18,0.02-0.25c0-0.37-0.2-0.56-0.6-0.56
			H45.52z"/>
		<path class="st0" d="M50.02,48.64h4.3l-0.31,1.68h-2.64l-0.62,3.4h2.27l-0.31,1.7h-2.27l-0.62,3.39h2.64l-0.31,1.69h-4.3
			L50.02,48.64z"/>
		<path class="st0" d="M57.68,56.77l3.41-8.13h1.66L60.59,60.5H59l1.21-6.66l-2.63,6.66h-1.12l-0.25-6.66L55,60.5h-1.61l2.16-11.87
			h1.66L57.68,56.77z"/>
		<path class="st0" d="M64.27,48.64h4.3l-0.31,1.68h-2.64l-0.62,3.4h2.27l-0.31,1.7h-2.27l-0.62,3.39h2.64l-0.31,1.69h-4.3
			L64.27,48.64z"/>
		<path class="st0" d="M69.8,48.64h1.66l0.32,6.88l1.25-6.88h1.54L72.41,60.5h-1.66l-0.3-6.67l-1.21,6.67h-1.59L69.8,48.64z"/>
		<path class="st0" d="M80.39,48.64l-0.31,1.68h-1.55L76.67,60.5h-1.66l1.85-10.18h-1.55l0.31-1.68H80.39z"/>
		<path class="st0" d="M80.9,50.96c0.3-1.66,1.25-2.49,2.84-2.49c1.34,0,2,0.58,2,1.75c0,0.22-0.03,0.47-0.08,0.74l-0.29,1.59h-1.66
			L84,50.96c0.02-0.09,0.02-0.17,0.02-0.25c0-0.37-0.2-0.55-0.6-0.55h-0.01c-0.48,0-0.76,0.27-0.86,0.8l-0.19,1.07
			c-0.01,0.05-0.01,0.1-0.01,0.16c0,0.5,0.4,1.09,1.21,1.79c0.73,0.63,1.1,1.35,1.1,2.18c0,0.18-0.02,0.37-0.05,0.56l-0.27,1.5
			c-0.3,1.67-1.25,2.5-2.84,2.5c-1.34,0-2-0.59-2-1.76c0-0.22,0.03-0.47,0.08-0.74l0.29-1.59h1.66l-0.29,1.59
			c-0.02,0.09-0.02,0.17-0.02,0.25c0,0.37,0.2,0.55,0.6,0.55c0.48,0,0.77-0.27,0.87-0.8l0.25-1.35c0.01-0.06,0.02-0.12,0.02-0.18
			c0-0.53-0.4-1.14-1.21-1.83c-0.73-0.63-1.1-1.36-1.1-2.2c0-0.19,0.02-0.38,0.05-0.58L80.9,50.96z"/>
	</g>
</g>
</svg>
