<?xml version="1.0" encoding="utf-8"?>
<!-- Generator: Adobe Illustrator 26.2.1, SVG Export Plug-In . SVG Version: 6.00 Build 0)  -->
<svg version="1.1" id="Calque_1" xmlns="http://www.w3.org/2000/svg" xmlns:xlink="http://www.w3.org/1999/xlink" x="0px" y="0px"
	 viewBox="0 0 99.1 67.3" style="enable-background:new 0 0 99.1 67.3;" xml:space="preserve">
<style type="text/css">
	.st0{fill:#666666;}
</style>
<g>
	<g>
		<path class="st0" d="M31.3,10.6H35l-2.4,15.3h3.2l2.4-15.3H42l-5.5,35.7h-3.7L35.1,31h-3.2l-2.4,15.3h-3.7
			C25.8,46.3,31.3,10.6,31.3,10.6z"/>
		<path class="st0" d="M52.2,33.7l-0.7,12.7h-3.8l0.4-7.6h-3.8l-1.9,7.6h-3.8l3.2-12.6L48,10.6h5.1L52.2,33.7L52.2,33.7z M48.5,33.7
			l0.9-14.9l-3.7,14.9H48.5z"/>
		<path class="st0" d="M59.2,10.6H63l0.3,20.7l3.2-20.7h3.4l-5.5,35.7h-3.7l-0.3-20.1l-3.1,20.1h-3.6C53.7,46.3,59.2,10.6,59.2,10.6
			z"/>
		<path class="st0" d="M73.4,10.6h5.7c2.7,0,4,1.7,4,4.9c0,0.8-0.1,1.6-0.2,2.6l-3.2,20.7c-0.8,5-2.9,7.5-6.4,7.5h-5.5L73.4,10.6
			L73.4,10.6z M76.3,15.7l-3.9,25.6H74c1.1,0,1.8-0.8,2-2.4l3.2-20.7c0.1-0.3,0.1-0.6,0.1-0.8c0-1.1-0.4-1.6-1.3-1.6L76.3,15.7
			L76.3,15.7z"/>
		<path class="st0" d="M87.3,10.6H91l-5.5,35.7h-3.7C81.8,46.3,87.3,10.6,87.3,10.6z"/>
		<path class="st0" d="M94.5,10.6h4.6l-0.8,5.2l-2.4,6.6h-2.4l1.7-6h-1.5L94.5,10.6L94.5,10.6z"/>
	</g>
	<g>
		<g>
			<path class="st0" d="M41.8,57.3h-5.5c-0.1,0.3-0.2,0.6-0.4,0.9c-0.1,0.3-0.5,1.2-0.3,1.6c0,0.1,0.1,0.2,0.2,0.2
				c0.7,0.4,1.3,0.8,2.1,1c0.4,0.1,0.7,0.1,1,0.1c0-0.1,0.1-0.2,0.1-0.3c-0.1,0.3,2.6,1.2,2.8,1.3c1,0.4,2.1,0.8,3.1,0.7V60
				C43.7,59.4,42.5,58.5,41.8,57.3L41.8,57.3z"/>
			<path class="st0" d="M36.8,55h3c-0.3-0.8-0.6-1.7-0.9-2.8c-0.2-0.6-0.4-1.4-0.6-2.4c-0.3-1.3-0.4-2.7-0.6-4.1
				c-0.1-0.7-0.1-1.4-0.2-2c0-0.3-0.3-1.2-0.2-1.5c0.2-0.4,0.4-1.2,0.2-2c-0.6-2.6-3.7-4.7-5.6-6.3c-2.1-1.8-4.2-3.5-5.2-4.3
				c0.2-0.5,0.6-1.2,0.8-2.2c0-0.2,0.1-0.4,0.2-1.7c0.1-0.9,0.2-2,0.3-3.4c0-1,0-1.3-0.1-1.7c0-0.1-0.1-0.5-0.2-0.9
				c-0.1-0.6,0-0.9,0-1c0.1-0.3,0.3-0.5,0.4-0.6c1.6,1,3,2.4,4.8,2.8c0.5,0.1,1-1.1,1.1-1.5c0.2-1.1,0.8-2,1.2-3.1
				c0.3-1,0.4-2.1,0.7-3.1c0.2-0.5,0.3-0.9,0.4-1.1c0-0.1,0-0.3,0-0.5c0-0.4,0.2-0.6,0.2-0.8c0.1-0.3,0.2-0.7,0.5-1.3
				c0-0.4,0-0.6,0-0.8s0-0.4-0.1-0.5s-0.2-0.1-0.3-0.1c0.1-0.2,0-0.4-0.1-0.5s-0.2-0.1-0.3-0.1c0.2,0-0.6-0.5-0.6-0.5
				C35,6.8,34.1,6.9,34,7.7c-0.1,1.1,0.1,2,0.1,3c0.1,0.2,0.2,0.4,0.3,0.5c0,1.8-0.7,3.5-1.5,5.1c-0.2,0.4-0.4,0.7-0.6,1
				c-0.2-0.2-0.6-0.6-1-0.9c-1.3-1.1-2.5-2-3.7-3.2c-0.5-0.6-1.1-0.7-1.8-1c-0.3-0.1-0.6-0.3-0.7-0.4c0-0.2-0.1-0.5,0-0.9
				c0.1-0.3,0.2-0.5,0.3-0.7c0.8,0.4,1.2,0.2,1.3,0.1c0.4-0.2,0.6-0.6,1.1-1.4c0.1-0.2,0.2-0.4,0.3-0.6c0,0,0.2,0,0.4-0.1
				c0.1-0.1,0.2-0.1,0.2-0.2c-0.1-0.2-0.2-0.5-0.2-0.8c0-0.2,0-0.3,0-0.5c0.2-0.2,0.3-0.4,0.5-0.6c-0.1-0.1,0-0.4,0-0.8
				c0.3-2.2-1.2-3.8-3.3-4c-0.6,0-1.1,0-1.7,0.2C23.9,1.7,23.6,2,23.4,2s-0.6-0.2-0.8-0.2C22,1.5,22,1.1,21.5,0.7
				c-1.5-1.3-3.4-0.7-4.1,1c0.4-0.1,0.7-0.1,0.8,0c0.3,0.5-1.1,1-1.4,0.6C16.9,2.5,17.3,3,18,3.1c0.2,0,0.4,0,0.6,0
				c-0.2,0.4-0.3,0.9-0.5,1.3c-0.2,0.3-0.3,0.7-0.5,1c0.1,0,0.6-0.1,0.8-0.6c0,0.3-0.1,0.6-0.1,0.9c0,1,0.2,1.7,0.4,2.2
				c0-0.2-0.2-1,0.3-1.7c0.1-0.2,0.2-0.3,0.4-0.4c0,0.1,0,0.9,0.5,1.4c0.2,0.1,0.3,0.2,0.5,0.3c-0.1-0.3-0.3-1.1-0.2-2
				c0.2-1.2,0.8-1.9,1.1-2.1c0,0.2,0,0.5,0,0.9c0,1.4,0.1,1.7-0.1,2.2C21.1,6.7,21,7,20.6,7.3c0.2,0,0.5,0,0.7-0.2
				c0.3-0.2,0.4-0.6,0.6-0.9C22,6.2,22,6.3,22,6.4c0.4,0.8,0.3,1.8-0.5,2.4c-0.3,0.2-0.6,0.4-0.8,0.4c-0.2-0.1-0.6-0.3-1.2-0.3
				c-0.2,0-0.8,0-1.5,0.2c-1.4,0.6-2.5,2.3-3,3.6c-1.8,2.2-3.8,4.8-4.3,7.7c-0.3,2,0.4,4,0,5.9c-0.1,0.3-0.1,0.4-0.2,0.6
				c-0.1,0.5-0.3,1.3-0.3,2.3c0,0.1,0.2,0.4,0.4,0.6s0.5,0.4,0.6,0.4c0.2,0.1,0.6,0.3,1.1,0.1c0.1,0,0.2-0.1,0.3-0.2
				c0.1,0.1,0.1,0.1,0.2,0.2c0.2-0.3,0.5-0.5,0.7-0.8c-0.1-0.4-0.1-0.9-0.2-1.3c-0.2-0.3-0.6-0.7-0.8-1.3c0-0.1-0.2-0.4-0.2-0.9
				c0-0.3-0.2-1.1,0.3-3.2c0.3-1.1,0.4-2.4,0.8-3.5c0.2-0.5,0.4-0.9,0.5-1.1c1.4-1.3,2.5-3,4.2-4c1,1.9,1.6,3.4,1.9,4.5
				c0.1,0.5,0.1,0.5,0.3,1.1c0.5,1.6,1.2,3.3,0.7,4.9c-0.4,0.3-3.3,2.9-2.8,6.2c0.1,0.5,0.2,1.1,0.7,1.8c-1.7,4.1-2.4,6-2.6,7
				c0,0.1-0.1,0.3-0.2,0.5c-0.1,0.3-0.3,0.7-0.5,1.1c-0.4,0.6-0.9,1-1.2,1.2c-0.7,0.4-1.5,0.7-2.3,1c0.5,0.2,0.9,0.6,1.1,1
				c0.5,0.8,0.5,1.9,0,2.7c0.2-0.1,0.5-0.2,0.7-0.3c0.9-0.5,1.6-0.9,2-1.2c0.4,0,1.8,0,2.8-1c0.2-0.2,0.4-0.5,0.5-0.7
				c0.6-0.9,1.3-1.8,1.9-2.8c0.5-0.8,1-1.6,1.5-2.5c0.6-1.1,1.2-2.2,1.7-3.3c1,0.8,1.9,1.4,2.5,1.8c1.2,0.8,2.5,1.5,3.7,2.3
				c0.5,0.3,2.7,1.5,2.6,2.2c0,0.2-0.1,0.5-0.1,0.8c-0.1,2.8,1.2,5.4,2.1,7.9c0.4,1.2,0.8,2.6,1.4,3.7C36.6,54.6,36.7,54.8,36.8,55
				L36.8,55z M22,4c0,0.1-0.1,0.2-0.1,0.3c0-0.3-0.1-0.5,0-0.9c0-0.4,0.1-0.9,0.4-0.9c0.2,0,0.4,0.1,0.5,0.3C22.3,3.3,22.1,3.8,22,4
				z"/>
		</g>
		<g>
			<path class="st0" d="M3.1,52.4c0,0-2.3,5.8,0.8,10.4s-1.3,4.6-2.2,3.9s-2.3-3.9-1.2-6.4C1.5,55.5,3.1,52.4,3.1,52.4L3.1,52.4z"/>
			<path class="st0" d="M6,47.1c0,0,4.6-4,6.4-3.5c1.8,0.4,1.9,2.5,1.5,3.9c0,0-0.3,0.6-1.2,1.1l-4.1,0.9c0,0-1.3,0.6-1.5,0.5
				s-0.2-0.2-0.2-0.2S6.9,48.6,6,47.1L6,47.1z"/>
			<g>
				<path class="st0" d="M6.9,49.8c-0.1-1-0.5-1.9-1.1-2.6c0.4-0.4,0.9-0.8,1.3-1.1c1.4-1.1,5.6-4.2,6.8-1.6c0.2,0.5,0.3,1,0.3,1.5
					s-0.1,1-0.3,1.5c0-0.2,0-0.5,0-0.7c0-0.9-0.2-2.1-1-2.6c-1.2-0.4-3.3,0.9-4.3,1.6c-0.8,0.5-1.6,1.1-2.4,1.7v-0.3
					C6.8,47.8,7.1,48.8,6.9,49.8L6.9,49.8z"/>
				<path class="st0" d="M8.7,49.5c-2.9,0.9-5.7,3-6,6.2c-0.3,2.8,0.9,5.5,2.1,7.9c0.2,0.3,0.3,0.6,0.4,1c0.4,1.2-0.1,2.6-1.4,2.8
					c-0.7,0.1-1.5-0.1-2-0.6c-1.5-1.2-1.9-3.7-1.5-5.5c0.1-0.3,0.2-0.6,0.4-0.9c-0.3,0.6-0.3,1.2-0.3,1.9c0.1,1.6,0.9,4,2.6,4.4
					c0.5,0.1,1.1,0,1.4-0.4s0.3-0.9,0.1-1.4c-0.1-0.3-0.3-0.5-0.4-0.8c-0.2-0.3-0.3-0.6-0.5-0.9c-1.5-2.9-2.7-6.5-1.1-9.6
					C3.4,51.2,6.1,49.8,8.7,49.5L8.7,49.5L8.7,49.5z"/>
				<path class="st0" d="M10.9,49c-0.2-0.7-0.5-1.4-0.8-2c0.2,0.7,0.4,1.3,0.6,2C10.8,49.1,10.9,49,10.9,49z"/>
				<path class="st0" d="M11.8,48.8c-0.2-0.7-0.5-1.4-0.8-2c0.2,0.7,0.4,1.4,0.6,2.1C11.6,48.8,11.8,48.8,11.8,48.8z"/>
				<path class="st0" d="M12.7,48.6c-0.2-0.7-0.5-1.5-0.8-2.1c0.2,0.7,0.4,1.4,0.6,2.1H12.7L12.7,48.6z"/>
			</g>
		</g>
	</g>
	<g>
		<path class="st0" d="M31.6,58.5c-0.3,1.5-1,2.3-2.3,2.5l0,0c0,0.3,0.6,0.4,1.8,0.4l-0.3,1.4c-1,0-1.6-0.1-2-0.3s-0.5-0.5-0.5-1
			c0-0.2,0-0.3,0-0.5c-1.1-0.1-1.6-0.7-1.6-1.7c0-0.2,0-0.5,0.1-0.8l1.3-7.3c0.3-1.7,1.2-2.5,2.8-2.5c1.3,0,2,0.6,2,1.8
			c0,0.2,0,0.5-0.1,0.7L31.6,58.5L31.6,58.5z M31.2,51.2c0-0.1,0-0.2,0-0.2c0-0.4-0.2-0.5-0.6-0.5l0,0c-0.5,0-0.8,0.3-0.9,0.8
			l-1.3,7.3c0,0.1,0,0.2,0,0.3c0,0.4,0.2,0.5,0.6,0.5c0.5,0,0.8-0.3,0.9-0.8C29.9,58.5,31.2,51.2,31.2,51.2z"/>
		<path class="st0" d="M37.7,58.2c-0.3,1.7-1.2,2.5-2.8,2.5c-1.3,0-2-0.6-2-1.8c0-0.2,0-0.5,0.1-0.7l1.7-9.6h1.7l-1.7,9.6
			c0,0.1,0,0.2,0,0.2c0,0.4,0.2,0.5,0.6,0.5c0.5,0,0.8-0.3,0.9-0.8l1.7-9.6h1.7L37.7,58.2L37.7,58.2z"/>
		<path class="st0" d="M41,48.6h1.7l-2.2,11.9h-1.7L41,48.6z"/>
		<path class="st0" d="M44.2,48.6h2.4c1.2,0,1.8,0.6,1.8,1.7c0,0.2,0,0.5-0.1,0.8L48,52.9c-0.2,1.2-0.9,2-2,2.4
			c-0.3,0.1-0.7,0.1-1.1,0.1h-0.3l-0.9,5.1H42L44.2,48.6L44.2,48.6z M45.5,50.3l-0.6,3.4h0.4c0.2,0,0.4,0,0.5,0
			c0.3-0.1,0.5-0.4,0.6-0.8l0.3-1.8c0-0.1,0-0.2,0-0.2c0-0.4-0.2-0.6-0.6-0.6L45.5,50.3L45.5,50.3z"/>
		<path class="st0" d="M50,48.6h4.3L54,50.3h-2.6l-0.6,3.4H53l-0.3,1.7h-2.3l-0.6,3.4h2.6l-0.3,1.7h-4.3L50,48.6L50,48.6z"/>
		<path class="st0" d="M57.7,56.8l3.4-8.1h1.7l-2.2,11.9H59l1.2-6.7l-2.6,6.7h-1.1l-0.2-6.7L55,60.5h-1.6l2.2-11.9h1.7L57.7,56.8
			L57.7,56.8z"/>
		<path class="st0" d="M64.3,48.6h4.3l-0.3,1.7h-2.6L65,53.7h2.3L67,55.4h-2.3l-0.6,3.4h2.6l-0.3,1.7h-4.3L64.3,48.6L64.3,48.6z"/>
		<path class="st0" d="M69.8,48.6h1.7l0.3,6.9l1.2-6.9h1.5l-2.2,11.9h-1.7l-0.3-6.7l-1.2,6.7h-1.6L69.8,48.6L69.8,48.6z"/>
		<path class="st0" d="M80.4,48.6l-0.3,1.7h-1.6l-1.8,10.2H75l1.8-10.2h-1.6l0.3-1.7C75.6,48.6,80.4,48.6,80.4,48.6z"/>
		<path class="st0" d="M80.9,51c0.3-1.7,1.2-2.5,2.8-2.5c1.3,0,2,0.6,2,1.8c0,0.2,0,0.5-0.1,0.7l-0.3,1.6h-1.7L84,51
			c0-0.1,0-0.2,0-0.2c0-0.4-0.2-0.5-0.6-0.5l0,0c-0.5,0-0.8,0.3-0.9,0.8L82.4,52c0,0,0,0.1,0,0.2c0,0.5,0.4,1.1,1.2,1.8
			c0.7,0.6,1.1,1.3,1.1,2.2c0,0.2,0,0.4-0.1,0.6l-0.3,1.5c-0.3,1.7-1.2,2.5-2.8,2.5c-1.3,0-2-0.6-2-1.8c0-0.2,0-0.5,0.1-0.7l0.3-1.6
			h1.7l-0.3,1.6c0,0.1,0,0.2,0,0.2c0,0.4,0.2,0.5,0.6,0.5c0.5,0,0.8-0.3,0.9-0.8l0.2-1.3c0-0.1,0-0.1,0-0.2c0-0.5-0.4-1.1-1.2-1.8
			c-0.7-0.6-1.1-1.4-1.1-2.2c0-0.2,0-0.4,0.1-0.6C80.7,52.1,80.9,51,80.9,51z"/>
	</g>
</g>
</svg>
