<?xml version="1.0" encoding="UTF-8"?><svg id="a" xmlns="http://www.w3.org/2000/svg" viewBox="0 0 105 54.01"><defs><style>.b{fill:#e52521;}.c{fill:#24386b;}.d{fill:#58c3e7;}</style></defs><g><path class="d" d="M37.64,.85h3.7l-2.34,15.21h3.23L44.57,.85h3.7l-5.45,35.47h-3.7l2.34-15.21h-3.23l-2.34,15.21h-3.7L37.64,.85Z"/><path class="d" d="M58.47,23.74l-.73,12.58h-3.74l.43-7.52h-3.78l-1.88,7.52h-3.73l3.12-12.53L54.31,.85h5.07l-.91,22.89Zm-3.74,0l.85-14.75-3.67,14.75h2.82Z"/><path class="d" d="M65.41,.85h3.7l.34,20.58L72.61,.85h3.42l-5.45,35.47h-3.7l-.31-19.92-3.06,19.92h-3.56L65.41,.85Z"/><path class="d" d="M79.43,.85h5.7c2.67,.01,4,1.65,4,4.92,0,.76-.07,1.61-.22,2.55l-3.15,20.56c-.77,4.95-2.87,7.44-6.31,7.45h-5.46L79.43,.85Zm2.93,5.04l-3.91,25.38h1.62c1.07,0,1.73-.8,1.99-2.4l3.15-20.56c.05-.31,.08-.59,.08-.83,0-1.06-.44-1.59-1.31-1.59h-1.62Z"/><path class="d" d="M93.26,.85h3.7l-5.45,35.47h-3.7L93.26,.85Z"/><path class="d" d="M100.42,.83h4.58l-.8,5.21-2.41,6.58h-2.41l1.66-5.91h-1.53l.9-5.88Z"/><path class="b" d="M51.87,41.37c.33-2.15,1.27-3.23,2.8-3.23,1.27,0,1.9,.73,1.9,2.19,0,.31-.03,.66-.09,1.04l-.32,2.07h-1.6l.32-2.07c.02-.13,.03-.24,.03-.34,0-.46-.19-.69-.57-.7h-.01c-.46,0-.74,.35-.85,1.04l-.22,1.4c-.01,.07-.02,.15-.02,.24,0,.64,.38,1.4,1.13,2.28,.68,.79,1.02,1.71,1.02,2.75,0,.26-.02,.52-.06,.8l-.3,1.94c-.33,2.16-1.27,3.24-2.8,3.24-1.27,0-1.9-.74-1.9-2.19,0-.31,.03-.66,.09-1.04l.32-2.07h1.6l-.32,2.07c-.02,.13-.03,.24-.03,.35,0,.46,.19,.69,.57,.69,.46,0,.75-.35,.86-1.04l.27-1.76c.01-.09,.02-.18,.02-.27,0-.68-.38-1.46-1.13-2.34-.68-.78-1.01-1.7-1.01-2.76,0-.27,.02-.55,.07-.85l.22-1.44Z"/><path class="b" d="M60.89,50.78c-.33,2.15-1.27,3.23-2.81,3.24-1.26,0-1.89-.73-1.89-2.19,0-.31,.03-.66,.09-1.05l1.45-9.41c.33-2.15,1.27-3.23,2.8-3.23,1.27,0,1.9,.73,1.9,2.19,0,.31-.03,.66-.09,1.04l-.32,2.07h-1.6l.32-2.07c.02-.13,.03-.24,.03-.34,0-.46-.19-.69-.57-.7h-.01c-.46,0-.74,.35-.85,1.04l-1.45,9.41c-.02,.13-.03,.25-.03,.35,0,.46,.19,.69,.57,.69,.47,0,.76-.35,.86-1.04l.32-2.07h1.6l-.32,2.07Z"/><path class="b" d="M64.13,38.38h1.6l-2.36,15.38h-1.6l2.36-15.38Z"/><path class="b" d="M67.23,38.38h2.33c1.16,0,1.73,.72,1.73,2.13,0,.33-.03,.7-.1,1.11l-.35,2.31c-.25,1.59-.92,2.61-2.01,3.07-.26,.11-.63,.16-1.09,.16h-.26l-1.01,6.59h-1.6l2.36-15.38Zm1.27,2.19l-.68,4.4h.37c.22,0,.38-.02,.47-.06,.32-.16,.51-.49,.59-.98l.35-2.31c.02-.14,.03-.26,.03-.36,0-.46-.19-.69-.57-.69h-.57Z"/><path class="b" d="M70.53,53.76l2.36-15.38h1.6l-2.03,13.19h2.56l-.33,2.19h-4.16Z"/><path class="b" d="M78.04,38.38h1.6l-2.36,15.38h-1.6l2.36-15.38Z"/><path class="b" d="M81.15,38.38h1.6l.15,8.92,1.37-8.92h1.48l-2.36,15.38h-1.6l-.14-8.64-1.33,8.64h-1.54l2.36-15.38Z"/><path class="b" d="M87.23,38.38h4.16l-.33,2.19h-2.56l-.68,4.4h2.2l-.33,2.19h-2.2l-.68,4.4h2.56l-.33,2.19h-4.16l2.36-15.38Z"/></g><path class="c" d="M47.96,46.18s-.04-.01-.07-.01c-.35-.05-.7,.04-1.05,.04-.81,0-1.54-.46-2.21-.92-.65-.43-1.29-.87-1.94-1.3-.86-.58-1.2-2.13-1.47-3.08-.38-1.35-.45-2.31-.62-3.69-.2-1.57-.44-3.13-.7-4.7-.03-.18-.06-.35-.05-.53,.02-.26,.13-.5,.18-.76,.14-.64-.08-1.35-.56-1.82-.03-.04-.07-.07-.11-.1-1.2-.99-1.48-2.09-2.34-3.34-.36-.53-.75-1.05-1.15-1.55-.27-.34-.55-.67-.84-.99-.06-.07-.12-.14-.18-.21-.02-.02-.06-.06-.11-.1-.18-.18-.54-.5-.9-.83-.11-.1-.23-.21-.34-.31-.01-.02-.04-.04-.06-.06-.26-.24-.5-.47-.64-.62-.08-.09-.13-.15-.16-.19-.01-.03-.03-.04-.02-.05,.03-.07,.04-.14,.06-.21,.01-.03,.02-.05,.03-.08h0c.06-.22,.11-.49,.15-.8,.83-.03,1.81-.1,2.58-.45,.78-.35,1.4-1,2.23-1.25,.36-.11,.74-.14,1.08-.29,.15-.07,.27-.19,.41-.26,.2-.1,.41-.08,.63-.13,.32-.08,.69-.32,.98-.48,.3-.16,.58-.51,.5-.86-.02-.08-.06-.14-.08-.18,.11-.13,.14-.29,.08-.42-.04-.08-.11-.13-.15-.15,.01-.02,.11-.2,.04-.38-.04-.08-.09-.13-.12-.16,.02-.14-.02-.29-.13-.37-.13-.1-.29-.06-.36-.04-.21,.05-.31,.22-.34,.26-.21,.08-.38,.13-.5,.16-.18,.05-.26,.06-.3,.01-.03-.03-.03-.08,0-.19,.04-.23,.12-.38,.13-.39,.02-.06,.3-.63,.11-.88-.01-.01-.06-.07-.11-.06-.09,0-.1,.2-.28,.44-.09,.13-.11,.1-.18,.21-.11,.16-.11,.28-.17,.44-.04,.11-.13,.28-.31,.44,.13,.48,.03,.9-.42,1.16-.36,.21-.74,.41-1.13,.56-.75,.31-1.37,.39-1.73,.44-.5,.07-.92,.08-1.24,.08,.15-.37,.26-.71,.33-1.06h0v-.02c.02-.07,.03-.15,.04-.23,0-.03,0-.06,.01-.09,.01-.08,.02-.16,.03-.24v-.08s.01-.04,.01-.06c0-.03,0-.04,0-.07,0-.02,0-.04,0-.07,.01-.29,0-.56-.03-.81h0c.03-.18,.05-.35,.08-.53,.04-.06,.08-.11,.11-.18,.05-.09,.09-.19,.13-.29,.02-.03,.03-.07,.04-.1s.02-.07,.03-.1h0c.27-.86,.09-1.63,.03-1.87-.11-.44-.47-.81-.58-1.23-.09-.4-.1-1.26,.01-1.66,.08-.24,.24-.46,.39-.67,.16-.22,.33-.44,.5-.66,.3-.39,.85-.16,1.17-.56,.12-.14,.15-.29,.17-.44,.04-.28,.09-.7,.11-1.25,.01,0,.2,.03,.31-.11,.04-.06,.06-.13,.06-.16-.19-.3-.38-.6-.56-.9,.06-.06,.14-.16,.19-.3,.05-.14,.04-.28-.03-.58-.03-.18-.09-.42-.17-.69,0-.23-.01-.66-.26-1.1-.26-.45-.66-.73-1.06-.9h0c-.07-.04-.15-.06-.22-.09h-.02c-.8-.27-1.76-.27-2.51,.12-.75,.36-1.08,.78-1.5,1.45-.28,.47-.41,.73-.18,1.24,.13-.27,.27-.35,.44-.41-.25,1.13-.17,2.24,.76,2.94-.81-.11-1.66-.23-2.44,.04-.36,.12-.68,.31-1.01,.49-.16,.1-.84,.43-1.4,.65-.32,.14-.65,.26-.96,.39-1.27,.49-1.83,.79-2.37,1.1-.28,.17-.55,.36-.81,.57-.1,.08-.2,.17-.24,.29h0c-.03,.09-.04,.18-.02,.26,.01,.08,.04,.16,.05,.24,.09,.33,.18,.66,.28,.99,.09,.33,.19,.66,.28,.98,.11,.38,.23,.76,.34,1.15,.16,.52,.32,1.05,.5,1.57,.07,.18,.13,.37,.19,.55,.06,.16,.11,.31,.18,.47,.07,.15,.14,.3,.24,.44,.03,.05,.08,.1,.14,.16,.08,.08,.18,.16,.26,.24,.03,.03,.04,.04,.06,.07,.04,.04,.06,.08,.08,.13,0,.03,.02,.04,.02,.07,.01,.12-.03,.23-.04,.35-.01,.09-.01,.18,0,.28,.01,.04,.03,.09,.06,.14,.01,.03,.04,.06,.06,.09,.08,.08,.18,.13,.28,.13,.16,0,.29-.13,.45-.16,.17-.04,.41,.08,.6,.23,.03,.02,.06,.05,.08,.08,.04,.04,.08,.09,.09,.14,.01,.01,.01,.02,.02,.03,.13,.38-.23,.88-.42,1.17-.08,.13-.16,.26-.25,.39-.5,.8-.98,1.63-1.32,2.52-.38,.97-.62,2.34-.31,3.33,.05,.16,.3,.51,.24,.66-.08,.18-.16,.35-.23,.53-.35,.83-.67,1.59-.95,2.24-.14,.34-.99,2.31-1.06,2.49-.28,.68-.33,1.06-.72,1.34-.18,.11-.38,.16-.59,.17-1.29-1.05-4.27-1.06-5.5-1.01-.54,.02-1.09,.07-1.63,.13,.1,.91-.16,1.84-.61,2.63,0,0-.02,.01-.04,.04-1.84-.62-3.91-.65-5.66,.26-.79,.41-1.45,.97-2,1.62-.92,.66-1.97,1.5-3.09,2.51-.14,.08-.27,.17-.4,.26,.12-.1,.25-.19,.4-.26-.29,.1-.54,.28-.77,.48-1.21,1.1-2.23,3.16-1.93,4.85,0,.08,.02,.15,.04,.22,.16,.66,.64,1.25,1.25,1.56,1.1,.64,2.3-.19,2.63-1.29,.11-.31,.15-.64,.2-.96,.38-2.54,1.01-5.23,2.78-7.18,1.72-1.9,4.37-2.23,6.79-1.73,.42,.16,1.29,.35,1.29,.35l1.84,.81-.02,.05,.17,.07s.01-.03,.02-.05l.59,.26v.03l.16,.07v-.03l.66,.29h0l.17,.07c.98,.14,1.57-.16,1.57-.16,.18-.13,.36-.28,.52-.43,.41,.04,.86,.08,1.35,.15,.16,.09,.61,.29,1.19,.21,.18-.03,.66-.09,1.07-.5,.18-.18,.28-.37,.34-.5,.83-1.09,1.65-2.19,2.48-3.28,.09-.13,.18-.25,.27-.38,.5-.73,.95-1.57,1.47-2.29,.19-.26,.4-.6,.62-.9h0c.13-.17,.43-.53,.64-.58,.34-.13,.71,.16,1.04,.5,.01,0,.42,.41,.42,.41,.13,.13,.26,.24,.38,.29,.16,.09,.34,.15,.51,.21,.81,.33,1.58,.85,2.26,1.4,.31,.25,.58,.5,.82,.75,.1,.1,.2,.21,.29,.31,.13,.14,.24,.28,.35,.41-.03,.65-.01,1.45,.13,2.34,.05,.31,.12,.65,.21,.99,0,0,0,.01,0,.01,.04,.17,.1,.34,.16,.52,.06,.18,.13,.36,.19,.54,.02,.06,.04,.12,.06,.18,.03,.05,.04,.1,.06,.15,.07,.14,.13,.26,.18,.37,.06,.09,.11,.19,.16,.28,.11,.19,.22,.39,.36,.72,.02,.04,.04,.08,.06,.13,.06,.14,.13,.29,.19,.46,.67,1.69,1.09,3.47,1.21,5.28v.1s0,.07,0,.11c.02,.38,0,.76-.14,1.1-.05,.11-.11,.22-.18,.33-.02,.02-.04,.04-.06,.07-.02,.02-.04,.05-.06,.08l.02,.11v.04c.01,.08,.02,.17,.02,.26v.42c-.04,.44-.15,.81-.25,1.06,0,0,0,.01-.01,.02-.02,.02-.04,.07-.07,.11-.02,.06-.04,.11-.04,.18v.02s0,.08,.02,.11c.01,.04,.03,.08,.05,.11,.01,.02,.02,.04,.04,.06,.02,.03,.04,.06,.06,.08,.04,.04,.08,.08,.11,.1,.21,.19,.48,.34,.77,.44,.1,.04,.2,.07,.31,.09,.56,.13,1.19,.12,1.74,0,.27-.06,.52-.14,.73-.24,.09-.04,.18-.09,.28-.09,.08,0,.15,.02,.22,.04,.7,.2,1.96,.36,3.14,.24h0c.8-.08,1.55-.28,2.06-.67,.44-.33,.71-.8,.68-1.44-.02-.39-.21-.74-.68-.82ZM26.93,13.88c-.09-.26-.06-.16-.26-.55-.18-.42-.29-.99-.35-1.44-.06-.43-.18-1.35-.18-1.61,.31-.03,.61-.06,.93-.09h0c0,.32,0,.68,.04,1.05,.05,.48,.13,.92,.21,1.3,.04,.13,.06,.26,.1,.37-.06,.48-.11,.96-.16,1.44-.05-.04-.09-.08-.13-.11-.11-.11-.15-.19-.18-.25,0-.02-.01-.06-.04-.12Z"/></svg>