<?xml version="1.0" encoding="utf-8"?>
<!-- Generator: Adobe Illustrator 26.2.1, SVG Export Plug-In . SVG Version: 6.00 Build 0)  -->
<svg version="1.1" id="Calque_1" xmlns="http://www.w3.org/2000/svg" xmlns:xlink="http://www.w3.org/1999/xlink" x="0px" y="0px"
	 viewBox="0 0 425.2 430.63" style="enable-background:new 0 0 425.2 430.63;" xml:space="preserve">
<style type="text/css">
	.st0{fill:#FFFFFF;}
</style>
<path class="st0" d="M419.26,403.78c-0.16-0.05-0.38-0.11-0.6-0.11c-3.07-0.44-6.14,0.38-9.15,0.38c-7.07,0.05-13.48-4.06-19.34-8
	c-5.64-3.78-11.29-7.62-16.93-11.34c-7.56-5.1-10.47-18.63-12.82-26.9c-3.34-11.78-3.95-20.22-5.42-32.27
	c-1.75-13.75-3.89-27.4-6.14-41.1c-0.27-1.53-0.55-3.07-0.44-4.6c0.16-2.25,1.1-4.38,1.53-6.63c1.26-5.59-0.66-11.84-4.88-15.89
	c-0.27-0.33-0.6-0.6-0.93-0.88c-10.52-8.66-12.93-18.25-20.44-29.21c-3.18-4.66-6.57-9.15-10.08-13.53
	c-2.36-2.96-4.82-5.86-7.34-8.66c-0.49-0.6-1.04-1.21-1.59-1.81c-0.22-0.17-0.49-0.49-0.93-0.88c-1.59-1.59-4.71-4.38-7.89-7.29
	c-0.99-0.88-1.97-1.81-2.96-2.68c-0.11-0.17-0.33-0.38-0.49-0.49c-2.25-2.08-4.33-4.11-5.59-5.42c-0.66-0.77-1.15-1.31-1.37-1.7
	c-0.11-0.22-0.22-0.33-0.16-0.44c0.22-0.6,0.33-1.21,0.49-1.86c0.11-0.22,0.16-0.44,0.22-0.66l-0.01-0.01
	c0.49-1.92,0.99-4.27,1.32-6.95c7.29-0.27,15.84-0.88,22.58-3.89c6.79-3.07,12.22-8.71,19.51-10.96c3.12-0.99,6.47-1.26,9.42-2.52
	c1.32-0.6,2.36-1.64,3.62-2.25c1.75-0.88,3.62-0.71,5.48-1.15c2.79-0.71,6.03-2.79,8.55-4.16c2.63-1.37,5.1-4.44,4.33-7.56
	c-0.16-0.71-0.49-1.21-0.66-1.53c0.93-1.1,1.21-2.58,0.66-3.67c-0.38-0.71-0.99-1.15-1.32-1.32c0.11-0.16,0.99-1.75,0.38-3.34
	c-0.33-0.66-0.77-1.1-1.04-1.37c0.22-1.21-0.16-2.52-1.1-3.23c-1.15-0.88-2.57-0.55-3.12-0.38c-1.81,0.44-2.74,1.92-2.96,2.3
	c-1.81,0.71-3.29,1.15-4.38,1.42c-1.53,0.44-2.3,0.49-2.63,0.11c-0.27-0.27-0.27-0.71-0.05-1.64c0.33-1.97,1.04-3.34,1.1-3.4
	c0.22-0.49,2.63-5.53,0.99-7.67c-0.11-0.11-0.49-0.6-0.93-0.55c-0.82,0.05-0.88,1.75-2.41,3.84c-0.77,1.1-0.93,0.88-1.59,1.86
	c-0.93,1.42-0.93,2.47-1.48,3.84c-0.33,0.99-1.1,2.41-2.69,3.89c1.1,4.22,0.22,7.84-3.67,10.14c-3.12,1.86-6.47,3.56-9.86,4.88
	c-6.57,2.69-12,3.45-15.12,3.89c-4.38,0.6-8.06,0.71-10.85,0.71c1.33-3.21,2.25-6.24,2.86-9.26h0.05v-0.16
	c0.14-0.62,0.24-1.32,0.34-2c0.04-0.25,0.07-0.5,0.1-0.75c0.09-0.67,0.17-1.36,0.23-2.08c0.02-0.23,0.04-0.46,0.05-0.69
	c0.01-0.17,0.03-0.34,0.04-0.51c0-0.22,0-0.38,0.05-0.6c0.05-0.22,0.05-0.38,0.05-0.6c0.11-2.58,0-4.93-0.22-7.07c0,0,0,0,0,0
	c0.22-1.53,0.44-3.07,0.66-4.66c0.33-0.49,0.66-0.93,0.93-1.53c0.44-0.82,0.82-1.7,1.15-2.52c0.14-0.3,0.26-0.6,0.37-0.9
	c0.11-0.29,0.21-0.58,0.29-0.86h0l0,0c2.36-7.51,0.77-14.25,0.22-16.38c-0.99-3.84-4.11-7.12-5.04-10.79
	c-0.82-3.51-0.88-11.01,0.11-14.52c0.66-2.14,2.08-4.06,3.45-5.86c1.42-1.92,2.9-3.84,4.33-5.81c2.63-3.45,7.4-1.42,10.25-4.88
	c1.04-1.26,1.32-2.58,1.48-3.89c0.38-2.47,0.82-6.08,0.93-10.9c0.11,0,1.75,0.22,2.74-0.93c0.38-0.55,0.49-1.1,0.55-1.37
	c-1.64-2.63-3.29-5.26-4.93-7.89c0.55-0.49,1.26-1.37,1.64-2.63c0.44-1.26,0.33-2.47-0.27-5.1c-0.27-1.59-0.77-3.67-1.48-6.03
	c0.05-2.03-0.11-5.81-2.25-9.59c-2.25-3.94-5.75-6.41-9.26-7.89V2.41c0,0,0,0,0,0c-0.63-0.27-1.29-0.5-1.95-0.73
	c-0.07-0.02-0.13-0.04-0.2-0.07c-7-2.32-15.41-2.3-21.96,1.12c-6.52,3.14-9.43,6.8-13.1,12.66c-2.47,4.12-3.56,6.41-1.59,10.85
	c1.17-2.32,2.39-3.08,3.84-3.56c-2.16,9.89-1.47,19.62,6.63,25.7c-7.12-0.99-14.52-1.97-21.37,0.33c-3.12,1.04-5.97,2.74-8.82,4.27
	c-1.41,0.85-7.35,3.75-12.22,5.64c-2.79,1.21-5.64,2.3-8.38,3.4c-11.14,4.29-15.96,6.9-20.71,9.64c-2.47,1.48-4.82,3.12-7.07,4.99
	c-0.88,0.71-1.75,1.48-2.14,2.52c0,0.05,0,0.05,0,0.05c-0.27,0.71-0.33,1.48-0.17,2.25c0.11,0.71,0.33,1.42,0.44,2.08
	c0.77,2.9,1.59,5.81,2.41,8.66c0.82,2.9,1.64,5.75,2.47,8.6c0.99,3.34,1.97,6.68,3.01,10.03c1.37,4.55,2.79,9.15,4.33,13.7
	c0.6,1.59,1.15,3.23,1.7,4.82c0.49,1.37,0.99,2.74,1.53,4.11c0.6,1.32,1.26,2.63,2.08,3.84c0.27,0.44,0.71,0.88,1.21,1.37
	c0.71,0.66,1.59,1.37,2.3,2.14c0.22,0.22,0.38,0.38,0.55,0.6c0.33,0.33,0.55,0.71,0.71,1.1c0.06,0.22,0.16,0.38,0.16,0.6
	c0.11,1.04-0.22,2.03-0.38,3.07c-0.11,0.77-0.11,1.59,0.05,2.41c0.11,0.38,0.27,0.82,0.49,1.21c0.11,0.27,0.33,0.55,0.55,0.77
	c0.66,0.66,1.53,1.15,2.47,1.15c1.37-0.05,2.57-1.15,3.95-1.42c1.48-0.33,3.62,0.66,5.2,2.03c0.22,0.16,0.49,0.44,0.71,0.71
	c0.38,0.38,0.66,0.82,0.82,1.26c0.11,0.11,0.11,0.16,0.16,0.27c1.1,3.29-2.03,7.67-3.67,10.25c-0.71,1.15-1.42,2.3-2.19,3.45
	c-4.33,6.96-8.6,14.25-11.51,22.03c-3.32,8.46-5.46,20.49-2.74,29.15c0.44,1.42,2.63,4.49,2.08,5.81c-0.71,1.53-1.37,3.07-1.97,4.66
	c-3.07,7.29-5.86,13.86-8.33,19.56c-1.2,2.94-8.62,20.24-9.27,21.81c-2.44,5.95-2.88,9.24-6.3,11.67c-1.56,0.99-3.34,1.38-5.15,1.52
	c-11.27-9.15-37.34-9.23-48.11-8.82c-4.75,0.21-9.51,0.6-14.26,1.16c0.84,7.93-1.36,16.08-5.37,22.95c0,0-0.2,0.13-0.39,0.34
	c-16.11-5.43-34.2-5.65-49.46,2.31c-6.91,3.63-12.68,8.49-17.5,14.18c-8.04,5.81-17.26,13.08-26.98,21.94
	c-1.2,0.71-2.35,1.49-3.46,2.32c1.07-0.88,2.21-1.67,3.46-2.32c-2.5,0.88-4.73,2.45-6.74,4.2c-10.59,9.61-19.47,27.59-16.88,42.36
	c0.09,0.7,0.21,1.34,0.36,1.89c1.39,5.78,5.62,10.97,10.94,13.64c9.66,5.62,20.11-1.69,23.01-11.29c0.93-2.73,1.3-5.61,1.71-8.41
	c3.35-22.24,8.8-45.77,24.33-62.79c15.04-16.65,38.21-19.47,59.39-15.11c3.7,1.36,11.25,3.04,11.25,3.04l16.07,7.09
	c-0.06,0.16-0.12,0.32-0.18,0.48l1.49,0.6c0.05-0.14,0.09-0.29,0.15-0.44l5.12,2.26c-0.03,0.09-0.07,0.18-0.1,0.27l1.5,0.61
	c0.03-0.08,0.05-0.15,0.08-0.23l5.73,2.53c-0.01,0.02-0.01,0.03-0.02,0.05l1.5,0.61c8.55,1.26,13.76-1.39,13.76-1.39
	c1.58-1.16,3.11-2.4,4.57-3.74c3.57,0.32,7.49,0.73,11.85,1.33c1.42,0.77,5.31,2.52,10.41,1.86c1.54-0.22,5.81-0.82,9.37-4.38
	c1.53-1.59,2.41-3.23,2.96-4.33c7.23-9.53,14.47-19.18,21.7-28.71c0.82-1.1,1.59-2.19,2.36-3.34c4.33-6.41,8.28-13.7,12.82-20.06
	c1.64-2.25,3.51-5.26,5.42-7.89l0,0h0h0.05c1.14-1.51,3.75-4.63,5.59-5.1c3.01-1.1,6.19,1.37,9.1,4.33
	c0.11,0.09,3.67,3.56,3.67,3.56c1.15,1.1,2.3,2.08,3.34,2.58c1.43,0.77,2.96,1.31,4.44,1.86c7.07,2.85,13.81,7.45,19.73,12.27
	c2.69,2.19,5.1,4.38,7.18,6.57c0.88,0.88,1.75,1.81,2.52,2.68c1.1,1.21,2.14,2.41,3.07,3.56c-0.27,5.7-0.11,12.66,1.15,20.44
	c0.44,2.74,1.04,5.7,1.81,8.66c0.05,0.05,0,0.11,0,0.11c0.38,1.48,0.88,3.01,1.37,4.55c0.55,1.53,1.1,3.12,1.7,4.71
	c0.16,0.55,0.38,1.04,0.55,1.54c0.22,0.44,0.38,0.88,0.55,1.31c0.6,1.26,1.1,2.25,1.53,3.23c0.49,0.82,0.93,1.64,1.37,2.47
	c0.93,1.64,1.92,3.45,3.18,6.3c0.16,0.33,0.33,0.71,0.49,1.1c0.55,1.21,1.1,2.52,1.7,4.06c5.86,14.74,9.53,30.3,10.58,46.14v0.88
	c0.05,0.27,0.05,0.6,0.05,0.93c0.16,3.34,0,6.63-1.26,9.59c-0.44,0.99-0.93,1.92-1.59,2.85c-0.16,0.16-0.33,0.38-0.55,0.6
	c-0.16,0.22-0.33,0.44-0.55,0.66l0.16,0.93v0.33c0.11,0.71,0.22,1.48,0.22,2.25v3.67c-0.33,3.89-1.31,7.07-2.19,9.26
	c-0.05,0.05-0.05,0.11-0.11,0.16c-0.16,0.22-0.38,0.6-0.6,0.99c-0.22,0.49-0.33,0.99-0.33,1.59v0.16c0,0.33,0.05,0.66,0.16,0.99
	c0.11,0.38,0.27,0.71,0.44,0.99c0.11,0.17,0.16,0.38,0.33,0.55c0.16,0.27,0.33,0.49,0.55,0.71c0.33,0.38,0.66,0.66,0.93,0.88
	c1.86,1.7,4.17,3.01,6.74,3.84c0.88,0.38,1.75,0.6,2.69,0.82c4.93,1.15,10.41,1.04,15.23,0c2.36-0.49,4.55-1.26,6.41-2.14
	c0.77-0.33,1.53-0.77,2.41-0.77c0.66-0.06,1.31,0.16,1.92,0.38c6.08,1.75,17.15,3.12,27.45,2.08c0,0,0,0,0,0h0.05
	c6.96-0.71,13.53-2.47,18.03-5.86c3.84-2.9,6.19-6.96,5.92-12.55C425.01,407.5,423.31,404.49,419.26,403.78z M235.42,121.37
	c-0.75-2.26-0.56-1.41-2.25-4.77c-1.55-3.64-2.51-8.68-3.07-12.6c-0.54-3.75-1.53-11.84-1.53-14.08c2.68-0.27,5.37-0.49,8.11-0.77
	h0.05c-0.05,2.79,0.06,5.92,0.33,9.21c0.44,4.22,1.1,8.05,1.86,11.4c0.33,1.15,0.55,2.25,0.88,3.23c-0.49,4.22-0.93,8.38-1.37,12.55
	c-0.44-0.38-0.82-0.66-1.15-0.93c-0.93-0.93-1.32-1.64-1.53-2.19C235.75,122.24,235.64,121.91,235.42,121.37z"/>
</svg>
