<svg xmlns="http://www.w3.org/2000/svg" width="20.096" height="20.096" viewBox="0 0 20.096 20.096">
  <path id="Path_110" data-name="Path 110" d="M11.663,14.354l2.153-1.974a.659.659,0,0,1,.538-.179l.359.179,5.024,2.333c.359.179.359.359.359.718a4.549,4.549,0,0,1-1.435,3.23A5.14,5.14,0,0,1,14.893,20.1,10.933,10.933,0,0,1,9.869,18.84a23.522,23.522,0,0,1-5.024-3.589A30.562,30.562,0,0,1,2.153,11.3,24.8,24.8,0,0,1,.359,7.357,11.042,11.042,0,0,1,0,3.947,4.715,4.715,0,0,1,1.256,1.256,5.457,5.457,0,0,1,4.665,0a.932.932,0,0,1,.718.359L8.074,5.383a.626.626,0,0,0,.179.359.659.659,0,0,1-.179.538L5.742,8.433a.8.8,0,0,0,0,.9A17.134,17.134,0,0,0,7.895,12.2a18.117,18.117,0,0,0,2.871,2.333C11.125,14.713,11.483,14.713,11.663,14.354Z" transform="translate(0 0)" fill="#fff"/>
</svg>
